<svg width="24" height="24" viewBox="0 0 24 24" fill="none" xmlns="http://www.w3.org/2000/svg">
<path fill-rule="evenodd" clip-rule="evenodd" d="M1 12C1 5.92487 5.92487 1 12 1C18.0751 1 23 5.92487 23 12C23 18.0751 18.0751 23 12 23C5.92487 23 1 18.0751 1 12ZM21 12C21 7.02944 16.9706 3 12 3C7.02944 3 3 7.02944 3 12C3 16.9706 7.02944 21 12 21C16.9706 21 21 16.9706 21 12ZM8.14667 8.66816C8.79391 6.82822 10.6738 5.72336 12.5962 6.05311C14.5186 6.38285 15.9229 8.05103 15.92 10C15.92 11.2797 15.1618 12.2906 13.9747 13.0821C13.3258 13.5147 12.6883 13.798 12.2362 13.9487C11.7123 14.1233 11.146 13.8402 10.9713 13.3162C10.8091 12.8297 11.0417 12.3067 11.4953 12.0946L11.7904 11.9807C11.8462 11.9579 11.9108 11.9306 11.9826 11.8987C12.2857 11.764 12.5884 11.6025 12.8653 11.4179C13.5532 10.9594 13.92 10.4703 13.92 9.99851C13.9215 9.02328 13.2193 8.18919 12.2581 8.02432C11.3503 7.86861 10.4615 8.35271 10.0929 9.18198L10.0333 9.33184C9.85006 9.85283 9.27915 10.1266 8.75816 9.94333C8.23717 9.76006 7.96339 9.18915 8.14667 8.66816ZM13.01 17C13.01 16.4477 12.5623 16 12.01 16L11.8834 16.0067C11.386 16.0645 11 16.4872 11 17C11 17.5523 11.4477 18 12 18L12.1266 17.9933C12.624 17.9355 13.01 17.5128 13.01 17Z" fill="#4698E4"/>
</svg>
