<svg width="25" height="29" viewBox="0 0 25 29" fill="none" xmlns="http://www.w3.org/2000/svg">
<g filter="url(#filter0_d_43_1018)">
<path fill-rule="evenodd" clip-rule="evenodd" d="M12.5 4.16675C11.3949 4.16675 10.3351 4.60573 9.55372 5.38714C8.77232 6.16854 8.33333 7.22835 8.33333 8.33341C8.33333 9.43848 8.77232 10.4983 9.55372 11.2797C10.3351 12.0611 11.3949 12.5001 12.5 12.5001C13.6051 12.5001 14.6649 12.0611 15.4463 11.2797C16.2277 10.4983 16.6667 9.43848 16.6667 8.33341C16.6667 7.22835 16.2277 6.16854 15.4463 5.38714C14.6649 4.60573 13.6051 4.16675 12.5 4.16675ZM10.4167 13.5417C9.3116 13.5417 8.25179 13.9807 7.47039 14.7621C6.68899 15.5435 6.25 16.6033 6.25 17.7084V18.7501C6.25 19.3026 6.46949 19.8325 6.86019 20.2232C7.25089 20.6139 7.7808 20.8334 8.33333 20.8334H16.6667C17.2192 20.8334 17.7491 20.6139 18.1398 20.2232C18.5305 19.8325 18.75 19.3026 18.75 18.7501V17.7084C18.75 16.6033 18.311 15.5435 17.5296 14.7621C16.7482 13.9807 15.6884 13.5417 14.5833 13.5417H10.4167Z" fill="white"/>
</g>
<defs>
<filter id="filter0_d_43_1018" x="-4" y="0" width="33" height="33" filterUnits="userSpaceOnUse" color-interpolation-filters="sRGB">
<feFlood flood-opacity="0" result="BackgroundImageFix"/>
<feColorMatrix in="SourceAlpha" type="matrix" values="0 0 0 0 0 0 0 0 0 0 0 0 0 0 0 0 0 0 0 0" result="hardAlpha"/>
<feOffset dy="4"/>
<feGaussianBlur stdDeviation="2"/>
<feComposite in2="hardAlpha" operator="out"/>
<feColorMatrix type="matrix" values="0 0 0 0 0 0 0 0 0 0 0 0 0 0 0 0 0 0 0.25 0"/>
<feBlend mode="normal" in2="BackgroundImageFix" result="effect1_dropShadow_43_1018"/>
<feBlend mode="normal" in="SourceGraphic" in2="effect1_dropShadow_43_1018" result="shape"/>
</filter>
</defs>
</svg>
