<svg width="25" height="22" viewBox="0 0 25 22" fill="none" xmlns="http://www.w3.org/2000/svg">
<g clip-path="url(#clip0_43_1041)">
<path d="M2.77778 0C1.24566 0 0 1.2332 0 2.75V19.25C0 20.7668 1.24566 22 2.77778 22H13.8889C15.421 22 16.6667 20.7668 16.6667 19.25V18.4207C16.5495 18.468 16.4323 18.5066 16.3108 18.5367L13.7023 19.1812C13.572 19.2113 13.4418 19.2328 13.3116 19.2414C13.2726 19.2457 13.2335 19.25 13.1944 19.25H10.4167C10.1519 19.25 9.91319 19.1039 9.79601 18.8719L9.41406 18.1113C9.34028 17.9652 9.19271 17.875 9.03212 17.875C8.87153 17.875 8.71962 17.9652 8.65017 18.1113L8.26823 18.8719C8.14236 19.1254 7.86892 19.2758 7.58681 19.25C7.30469 19.2242 7.06163 19.0309 6.98351 18.7645L6.25 16.3711L5.82465 17.7805C5.5599 18.6527 4.74826 19.25 3.82812 19.25H3.47222C3.09028 19.25 2.77778 18.9406 2.77778 18.5625C2.77778 18.1844 3.09028 17.875 3.47222 17.875H3.82812C4.13628 17.875 4.40538 17.6773 4.49219 17.3852L5.13889 15.2582C5.28646 14.7727 5.73785 14.4375 6.25 14.4375C6.76215 14.4375 7.21354 14.7727 7.36111 15.2582L7.86458 16.9168C8.18576 16.6504 8.59375 16.5 9.02778 16.5C9.71788 16.5 10.3472 16.8867 10.6554 17.4969L10.8464 17.875H11.2326C11.0981 17.4969 11.072 17.0844 11.1719 16.6805L11.8229 14.098C11.9444 13.6125 12.1962 13.1742 12.5521 12.8219L16.6667 8.74844V6.875H11.1111C10.3429 6.875 9.72222 6.26055 9.72222 5.5V0H2.77778ZM11.1111 0V5.5H16.6667L11.1111 0ZM23.8628 6.00273C23.1858 5.33242 22.0877 5.33242 21.4062 6.00273L20.1302 7.26602L23.2118 10.3168L24.4878 9.05352C25.1649 8.3832 25.1649 7.29609 24.4878 6.62148L23.8628 6.00273ZM13.5373 13.793C13.3594 13.9691 13.2335 14.1883 13.1727 14.4332L12.5217 17.0156C12.4609 17.252 12.5304 17.4969 12.704 17.6688C12.8776 17.8406 13.125 17.9094 13.3637 17.8492L15.9722 17.2047C16.2153 17.1445 16.441 17.0199 16.6189 16.8438L22.2266 11.2879L19.145 8.23711L13.5373 13.793Z" fill="white"/>
</g>
<defs>
<clipPath id="clip0_43_1041">
<rect width="25" height="22" fill="white"/>
</clipPath>
</defs>
</svg>
