<svg width="25" height="25" viewBox="0 0 25 25" fill="none" xmlns="http://www.w3.org/2000/svg">
<path fill-rule="evenodd" clip-rule="evenodd" d="M14.6115 8.36787C15.3664 10.8623 14.3941 13.5554 12.2182 14.9971C14.0245 15.6617 15.5856 16.8582 16.6948 18.4278C16.8646 18.6683 16.886 18.9831 16.7501 19.2442C16.6143 19.5053 16.344 19.6692 16.0491 19.6692L1.83163 19.6697C1.53673 19.6697 1.26638 19.5059 1.13054 19.2448C0.994698 18.9837 1.01598 18.6689 1.18574 18.4284C2.29496 16.8584 3.85633 15.6618 5.66287 14.9971C3.48693 13.5554 2.51461 10.8623 3.26951 8.36787C4.0244 5.87348 6.32828 4.16675 8.94052 4.16675C11.5528 4.16675 13.8566 5.87348 14.6115 8.36787ZM22.3673 7.61229C23.5839 10.2541 22.693 13.3861 20.2667 14.9971C22.0731 15.6617 23.6343 16.8581 24.7434 18.4278C24.9132 18.6683 24.9345 18.9831 24.7987 19.2442C24.6629 19.5053 24.3926 19.6692 24.0978 19.6692L19.6825 19.6697C19.3757 19.6698 19.0966 19.4925 18.9668 19.2152C18.3599 17.9175 17.5055 16.75 16.4512 15.7779C16.4355 15.7633 16.4212 15.748 16.4069 15.7325C16.1313 15.4815 15.8431 15.2444 15.5437 15.0221C15.2156 14.7787 15.128 14.3258 15.3418 13.9781C16.9394 11.3761 16.7893 8.06629 14.9626 5.61879C14.8073 5.41074 14.7646 5.1398 14.8485 4.89429C14.9323 4.64878 15.132 4.46016 15.3823 4.38994C18.1883 3.6038 21.1508 4.97044 22.3673 7.61229Z" fill="white"/>
</svg>
