<svg width="25" height="25" viewBox="0 0 25 25" fill="none" xmlns="http://www.w3.org/2000/svg">
<path fill-rule="evenodd" clip-rule="evenodd" d="M13.5422 2.7195C12.9023 2.32885 12.0977 2.32885 11.4579 2.7195L4.93221 6.70351C3.64265 7.49081 3.65822 9.36878 4.96065 10.1346L11.5103 13.9857C12.1374 14.3544 12.9153 14.3535 13.5416 13.9834L20.0504 10.1367C21.3495 9.36901 21.3629 7.49418 20.075 6.70791L13.5422 2.7195ZM20.4199 11.9488C20.9201 11.6645 21.5559 11.8396 21.8402 12.3398C22.1041 12.8042 21.972 13.3857 21.5513 13.6939L21.4492 13.7601L14.5798 17.6636C13.7155 18.1592 12.6606 18.1933 11.7671 17.764L11.5782 17.6649L4.78984 13.7572C4.29125 13.4702 4.11973 12.8333 4.40675 12.3347C4.67326 11.8718 5.24142 11.6908 5.72042 11.8971L5.8292 11.9516L12.614 15.8573C12.8643 16.0001 13.1696 16.0176 13.4357 15.9087L13.5471 15.8543L20.4199 11.9488ZM20.3189 15.7611C20.8191 15.4769 21.4549 15.6519 21.7392 16.1521C22.0031 16.6166 21.871 17.198 21.4503 17.5063L21.3482 17.5724L14.4788 21.476C13.6145 21.9716 12.5596 22.0057 11.6661 21.5763L11.4772 21.4772L4.68884 17.5695C4.19026 17.2825 4.01874 16.6457 4.30575 16.1471C4.57226 15.6841 5.14042 15.5031 5.61943 15.7094L5.7282 15.764L12.513 19.6696C12.7633 19.8124 13.0686 19.83 13.3347 19.7211L13.4461 19.6667L20.3189 15.7611Z" fill="white"/>
</svg>
