<svg width="25" height="25" viewBox="0 0 25 25" fill="none" xmlns="http://www.w3.org/2000/svg">
<path d="M11.0416 14.3749L8.802 12.1353C8.61103 11.9444 8.36798 11.8489 8.07284 11.8489C7.7777 11.8489 7.53464 11.9444 7.34367 12.1353C7.1527 12.3263 7.05721 12.5694 7.05721 12.8645C7.05721 13.1596 7.1527 13.4027 7.34367 13.5937L10.3124 16.5624C10.5208 16.7708 10.7638 16.8749 11.0416 16.8749C11.3194 16.8749 11.5624 16.7708 11.7708 16.5624L17.6562 10.677C17.8471 10.486 17.9426 10.243 17.9426 9.94783C17.9426 9.6527 17.8471 9.40964 17.6562 9.21867C17.4652 9.0277 17.2221 8.93221 16.927 8.93221C16.6319 8.93221 16.3888 9.0277 16.1978 9.21867L11.0416 14.3749ZM12.4999 22.9166C11.0589 22.9166 9.70478 22.643 8.43742 22.0958C7.17006 21.5485 6.06763 20.8065 5.13013 19.8697C4.19263 18.9329 3.45061 17.8305 2.90409 16.5624C2.35756 15.2944 2.08395 13.9402 2.08325 12.4999C2.08256 11.0596 2.35617 9.70547 2.90409 8.43742C3.452 7.16936 4.19402 6.06693 5.13013 5.13013C6.06624 4.19332 7.16867 3.45131 8.43742 2.90409C9.70617 2.35686 11.0603 2.08325 12.4999 2.08325C13.9395 2.08325 15.2937 2.35686 16.5624 2.90409C17.8312 3.45131 18.9336 4.19332 19.8697 5.13013C20.8058 6.06693 21.5482 7.16936 22.0968 8.43742C22.6454 9.70547 22.9187 11.0596 22.9166 12.4999C22.9145 13.9402 22.6409 15.2944 22.0958 16.5624C21.5506 17.8305 20.8086 18.9329 19.8697 19.8697C18.9308 20.8065 17.8284 21.5489 16.5624 22.0968C15.2964 22.6447 13.9423 22.918 12.4999 22.9166Z" fill="white"/>
</svg>
