<svg width="305" height="230" viewBox="0 0 305 230" fill="none" xmlns="http://www.w3.org/2000/svg">
<g clip-path="url(#clip0_1_302)">
<mask id="mask0_1_302" style="mask-type:luminance" maskUnits="userSpaceOnUse" x="0" y="199" width="305" height="1">
<path fill-rule="evenodd" clip-rule="evenodd" d="M0 199.351H305V199.851H0V199.351Z" fill="white"/>
</mask>
<g mask="url(#mask0_1_302)">
<path fill-rule="evenodd" clip-rule="evenodd" d="M0 199.664H305V199.539H0V199.664Z" fill="#E4E4DE"/>
</g>
<path fill-rule="evenodd" clip-rule="evenodd" d="M243 209.976H275V209.726H243V209.976Z" fill="#E4E4DE"/>
<path fill-rule="evenodd" clip-rule="evenodd" d="M167 207.976H203V207.726H167V207.976Z" fill="#E4E4DE"/>
<path fill-rule="evenodd" clip-rule="evenodd" d="M232 206.976H244V206.726H232V206.976Z" fill="#E4E4DE"/>
<path fill-rule="evenodd" clip-rule="evenodd" d="M62 204.976H87V204.726H62V204.976Z" fill="#D0D9E6"/>
<path fill-rule="evenodd" clip-rule="evenodd" d="M49 204.976H58V204.726H49V204.976Z" fill="#D0D9E6"/>
<path fill-rule="evenodd" clip-rule="evenodd" d="M80 207.976H113V207.726H80V207.976Z" fill="#D0D9E6"/>
<path fill-rule="evenodd" clip-rule="evenodd" d="M26.4888 0.503283C24.649 0.503283 23.1528 1.99253 23.1528 3.82231V168.88C23.1528 170.711 24.649 172.199 26.4888 172.199H144.512C146.35 172.199 147.847 170.711 147.847 168.88V3.82231C147.847 1.99253 146.35 0.503283 144.512 0.503283H26.4888ZM144.512 172.351H26.4888C24.5647 172.351 23 170.795 23 168.88V3.82231C23 1.90861 24.5647 0.351257 26.4888 0.351257H144.512C146.435 0.351257 148 1.90861 148 3.82231V168.88C148 170.795 146.435 172.351 144.512 172.351Z" fill="#D0D9E6"/>
<path fill-rule="evenodd" clip-rule="evenodd" d="M159.488 0.503283C157.649 0.503283 156.153 1.99253 156.153 3.82231V168.88C156.153 170.711 157.649 172.199 159.488 172.199H277.511C279.35 172.199 280.847 170.711 280.847 168.88V3.82231C280.847 1.99253 279.35 0.503283 277.511 0.503283H159.488ZM277.511 172.351H159.488C157.565 172.351 156 170.795 156 168.88V3.82231C156 1.90861 157.565 0.351257 159.488 0.351257H277.511C279.435 0.351257 281 1.90861 281 3.82231V168.88C281 170.795 279.435 172.351 277.511 172.351Z" fill="#D0D9E6"/>
<path fill-rule="evenodd" clip-rule="evenodd" d="M71.8948 163.351H35.1052C33.3972 163.351 32 161.87 32 160.06V158.643C32 156.832 33.3972 155.351 35.1052 155.351H71.8948C73.6022 155.351 75 156.832 75 158.643V160.06C75 161.87 73.6022 163.351 71.8948 163.351Z" fill="#E3ECFA"/>
<path fill-rule="evenodd" clip-rule="evenodd" d="M43 163.351H36.918L30 200.351H36.082L43 163.351Z" fill="#DAE2F0"/>
<path fill-rule="evenodd" clip-rule="evenodd" d="M57 163.351H50.5912L47 200.351H53.4088L57 163.351Z" fill="#DAE2F0"/>
<path fill-rule="evenodd" clip-rule="evenodd" d="M62 163.351H68.0824L75 200.351H68.9182L62 163.351Z" fill="#DAE2F0"/>
<path fill-rule="evenodd" clip-rule="evenodd" d="M120 133.351H263V8.35126H120V133.351Z" fill="#DAE2F0"/>
<path fill-rule="evenodd" clip-rule="evenodd" d="M122 133.351H267V8.35126H122V133.351Z" fill="#E3ECFA"/>
<path fill-rule="evenodd" clip-rule="evenodd" d="M120 136.351H263V133.351H120V136.351Z" fill="#DDDED8"/>
<path fill-rule="evenodd" clip-rule="evenodd" d="M125 136.351H270V133.351H125V136.351Z" fill="#DAE2F0"/>
<path fill-rule="evenodd" clip-rule="evenodd" d="M128 129.351H261V13.3513H128V129.351Z" fill="#FCFEFF"/>
<path fill-rule="evenodd" clip-rule="evenodd" d="M171 129.351L195.663 13.3513H212L187.337 129.351H171Z" fill="#FFFFFE"/>
<path fill-rule="evenodd" clip-rule="evenodd" d="M152 129.351L176.662 13.3513H193L168.338 129.351H152Z" fill="#FFFFFE"/>
<path fill-rule="evenodd" clip-rule="evenodd" d="M131 14.6653V123.037C131 123.21 131.27 123.351 131.602 123.351H132.398C132.731 123.351 133 123.21 133 123.037V14.6653C133 14.4916 132.731 14.3513 132.398 14.3513H131.602C131.27 14.3513 131 14.4916 131 14.6653Z" fill="#EAEAE5"/>
<path fill-rule="evenodd" clip-rule="evenodd" d="M213 129.351L237.637 13.3513H244L219.363 129.351H213Z" fill="#FFFFFE"/>
<path fill-rule="evenodd" clip-rule="evenodd" d="M260 129.351H261V13.3513H260V129.351Z" fill="#DAE2F0"/>
<path fill-rule="evenodd" clip-rule="evenodd" d="M268 16.3513H267V13.3513H267.611L268 16.3513Z" fill="#E3ECFA"/>
<path fill-rule="evenodd" clip-rule="evenodd" d="M261 16.3513H268V13.3513H261V16.3513Z" fill="#DAE2F0"/>
<path fill-rule="evenodd" clip-rule="evenodd" d="M260 17.3513H243.995L244.69 14.3513H260V17.3513ZM237.719 17.3513H231.157L231 14.3513H238.414L237.719 17.3513Z" fill="#E3ECFA"/>
<path fill-rule="evenodd" clip-rule="evenodd" d="M244.202 16.3513H237L237.798 13.3513H245L244.202 16.3513Z" fill="#EBF3FF"/>
<path fill-rule="evenodd" clip-rule="evenodd" d="M260 16.3513H261V13.3513H260V16.3513Z" fill="#CCD3E0"/>
<path fill-rule="evenodd" clip-rule="evenodd" d="M268 29.3513H267V26.3513H267.611L268 29.3513Z" fill="#E3ECFA"/>
<path fill-rule="evenodd" clip-rule="evenodd" d="M261 29.3513H268V26.3513H261V29.3513Z" fill="#DAE2F0"/>
<path fill-rule="evenodd" clip-rule="evenodd" d="M261 29.3513H242.261L242.969 26.3513H261V29.3513ZM235.866 29.3513H232.16L232 26.3513H236.574L235.866 29.3513Z" fill="#E3ECFA"/>
<path fill-rule="evenodd" clip-rule="evenodd" d="M242.202 29.3513H235L235.798 26.3513H243L242.202 29.3513Z" fill="#EBF3FF"/>
<path fill-rule="evenodd" clip-rule="evenodd" d="M260 29.3513H261V26.3513H260V29.3513Z" fill="#CCD3E0"/>
<path fill-rule="evenodd" clip-rule="evenodd" d="M268 41.3513H267V38.3513H267.611L268 41.3513Z" fill="#E3ECFA"/>
<path fill-rule="evenodd" clip-rule="evenodd" d="M261 41.3513H268V38.3513H261V41.3513Z" fill="#DAE2F0"/>
<path fill-rule="evenodd" clip-rule="evenodd" d="M260 41.3513H239.165L239.862 38.3513H260V41.3513ZM232.87 41.3513H232.158L232 38.3513H233.568L232.87 41.3513Z" fill="#E3ECFA"/>
<path fill-rule="evenodd" clip-rule="evenodd" d="M240.202 41.3513H233L233.798 38.3513H241L240.202 41.3513Z" fill="#EBF3FF"/>
<path fill-rule="evenodd" clip-rule="evenodd" d="M260 41.3513H261V38.3513H260V41.3513Z" fill="#CCD3E0"/>
<path fill-rule="evenodd" clip-rule="evenodd" d="M268 51.3513H267V48.3513H267.611L268 51.3513Z" fill="#E3ECFA"/>
<path fill-rule="evenodd" clip-rule="evenodd" d="M261 51.3513H268V48.3513H261V51.3513Z" fill="#DAE2F0"/>
<path fill-rule="evenodd" clip-rule="evenodd" d="M261 51.3513H238L238.691 48.3513H261V51.3513Z" fill="#E3ECFA"/>
<path fill-rule="evenodd" clip-rule="evenodd" d="M237.292 51.3513H233.16L233 48.3513H238L237.292 51.3513Z" fill="#EBF3FF"/>
<path fill-rule="evenodd" clip-rule="evenodd" d="M260 51.3513H261V48.3513H260V51.3513Z" fill="#CCD3E0"/>
<path fill-rule="evenodd" clip-rule="evenodd" d="M268 62.3513H267V59.3513H267.611L268 62.3513Z" fill="#E3ECFA"/>
<path fill-rule="evenodd" clip-rule="evenodd" d="M261 62.3513H268V59.3513H261V62.3513Z" fill="#DAE2F0"/>
<path fill-rule="evenodd" clip-rule="evenodd" d="M260 62.3513H235L235.68 59.3513H260V62.3513Z" fill="#E3ECFA"/>
<path fill-rule="evenodd" clip-rule="evenodd" d="M234.301 62.3513H233.158L233 59.3513H235L234.301 62.3513Z" fill="#EBF3FF"/>
<path fill-rule="evenodd" clip-rule="evenodd" d="M260 62.3513H261V59.3513H260V62.3513Z" fill="#CCD3E0"/>
<path fill-rule="evenodd" clip-rule="evenodd" d="M268 75.3513H267V72.3513H267.611L268 75.3513Z" fill="#E3ECFA"/>
<path fill-rule="evenodd" clip-rule="evenodd" d="M261 75.3513H268V72.3513H261V75.3513Z" fill="#DAE2F0"/>
<path fill-rule="evenodd" clip-rule="evenodd" d="M260 75.3513H235.249C234.956 74.8888 234.551 74.267 234.063 73.5673L234 72.3513H260V75.3513Z" fill="#E3ECFA"/>
<path fill-rule="evenodd" clip-rule="evenodd" d="M260 75.3513H261V72.3513H260V75.3513Z" fill="#CCD3E0"/>
<path fill-rule="evenodd" clip-rule="evenodd" d="M268 23.3513H267V20.3513H267.611L268 23.3513Z" fill="#E3ECFA"/>
<path fill-rule="evenodd" clip-rule="evenodd" d="M261 23.3513H268V20.3513H261V23.3513Z" fill="#DAE2F0"/>
<path fill-rule="evenodd" clip-rule="evenodd" d="M260 23.3513H242.641L243.343 20.3513H260V23.3513ZM236.306 23.3513H231.159L231 20.3513H237.007L236.306 23.3513Z" fill="#E3ECFA"/>
<path fill-rule="evenodd" clip-rule="evenodd" d="M243.202 23.3513H236L236.798 20.3513H244L243.202 23.3513Z" fill="#EBF3FF"/>
<path fill-rule="evenodd" clip-rule="evenodd" d="M260 23.3513H261V20.3513H260V23.3513Z" fill="#CCD3E0"/>
<path fill-rule="evenodd" clip-rule="evenodd" d="M268 35.3513H267V32.3513H267.611L268 35.3513Z" fill="#E3ECFA"/>
<path fill-rule="evenodd" clip-rule="evenodd" d="M261 35.3513H268V32.3513H261V35.3513Z" fill="#DAE2F0"/>
<path fill-rule="evenodd" clip-rule="evenodd" d="M261 35.3513H240.854L241.569 32.3513H261V35.3513ZM234.397 35.3513H232.161L232 32.3513H235.113L234.397 35.3513Z" fill="#E3ECFA"/>
<path fill-rule="evenodd" clip-rule="evenodd" d="M241.202 35.3513H234L234.798 32.3513H242L241.202 35.3513Z" fill="#EBF3FF"/>
<path fill-rule="evenodd" clip-rule="evenodd" d="M260 35.3513H261V32.3513H260V35.3513Z" fill="#CCD3E0"/>
<path fill-rule="evenodd" clip-rule="evenodd" d="M268 47.3513H267V44.3513H267.611L268 47.3513Z" fill="#E3ECFA"/>
<path fill-rule="evenodd" clip-rule="evenodd" d="M261 47.3513H268V44.3513H261V47.3513Z" fill="#DAE2F0"/>
<path fill-rule="evenodd" clip-rule="evenodd" d="M260 47.3513H237.754L238.458 44.3513H260V47.3513ZM232.019 44.7061L232 44.3513H232.102L232.019 44.7061Z" fill="#E3ECFA"/>
<path fill-rule="evenodd" clip-rule="evenodd" d="M239.235 47.3513H233.153L233 44.7061L233.091 44.3513H240L239.235 47.3513Z" fill="#EBF3FF"/>
<path fill-rule="evenodd" clip-rule="evenodd" d="M260 47.3513H261V44.3513H260V47.3513Z" fill="#CCD3E0"/>
<path fill-rule="evenodd" clip-rule="evenodd" d="M268 57.3513H267V54.3513H267.611L268 57.3513Z" fill="#E3ECFA"/>
<path fill-rule="evenodd" clip-rule="evenodd" d="M261 57.3513H268V54.3513H261V57.3513Z" fill="#DAE2F0"/>
<path fill-rule="evenodd" clip-rule="evenodd" d="M260 57.3513H236L236.685 54.3513H260V57.3513Z" fill="#E3ECFA"/>
<path fill-rule="evenodd" clip-rule="evenodd" d="M236.195 57.3513H233.183L233 54.3513H237L236.195 57.3513Z" fill="#EBF3FF"/>
<path fill-rule="evenodd" clip-rule="evenodd" d="M260 57.3513H261V54.3513H260V57.3513Z" fill="#CCD3E0"/>
<path fill-rule="evenodd" clip-rule="evenodd" d="M268 69.3513H267V66.3513H267.611L268 69.3513Z" fill="#E3ECFA"/>
<path fill-rule="evenodd" clip-rule="evenodd" d="M261 69.3513H268V66.3513H261V69.3513Z" fill="#DAE2F0"/>
<path fill-rule="evenodd" clip-rule="evenodd" d="M261 69.3513H234.062L234 68.205L234.438 66.3513H261V69.3513Z" fill="#E3ECFA"/>
<path fill-rule="evenodd" clip-rule="evenodd" d="M234.219 68.3513L234.055 66.3513H234.945L234.219 68.3513Z" fill="#E9E9E4"/>
<path fill-rule="evenodd" clip-rule="evenodd" d="M260 69.3513H261V66.3513H260V69.3513Z" fill="#CCD3E0"/>
<path fill-rule="evenodd" clip-rule="evenodd" d="M268 81.3513H267V78.3513H267.611L268 81.3513Z" fill="#E3ECFA"/>
<path fill-rule="evenodd" clip-rule="evenodd" d="M261 81.3513H268V78.3513H261V81.3513Z" fill="#DAE2F0"/>
<path fill-rule="evenodd" clip-rule="evenodd" d="M260 81.3513H236.81C236.583 80.9365 236.348 80.5278 236.109 80.1229C235.758 79.5164 235.385 78.9286 235 78.3513H260V81.3513Z" fill="#E3ECFA"/>
<path fill-rule="evenodd" clip-rule="evenodd" d="M260 81.3513H261V78.3513H260V81.3513Z" fill="#CCD3E0"/>
<path fill-rule="evenodd" clip-rule="evenodd" d="M243 200.351H263V143.351H243V200.351Z" fill="#DDDED8"/>
<path fill-rule="evenodd" clip-rule="evenodd" d="M251.772 200.351H263V193.351H240L251.772 200.351Z" fill="#E3ECFA"/>
<path fill-rule="evenodd" clip-rule="evenodd" d="M187 200.351H207V143.351H187V200.351Z" fill="#DAE2F0"/>
<path fill-rule="evenodd" clip-rule="evenodd" d="M197 198.351H263V142.351H197V198.351Z" fill="#E3ECFA"/>
<path fill-rule="evenodd" clip-rule="evenodd" d="M208.228 200.351H197V193.351H220L208.228 200.351Z" fill="#E3ECFA"/>
<path fill-rule="evenodd" clip-rule="evenodd" d="M204 177.351H253V149.351H204V177.351Z" fill="#FCFEFF"/>
<path fill-rule="evenodd" clip-rule="evenodd" d="M204 195.351H253V181.351H204V195.351Z" fill="#FCFEFF"/>
<path fill-rule="evenodd" clip-rule="evenodd" d="M234.257 151.351H224.743C223.229 151.351 222 150.009 222 148.351H237C237 150.009 235.771 151.351 234.257 151.351Z" fill="#E4E4DE"/>
<path fill-rule="evenodd" clip-rule="evenodd" d="M234.257 182.351H224.743C223.229 182.351 222 181.008 222 179.351H237C237 181.008 235.772 182.351 234.257 182.351Z" fill="#E3ECFA"/>
<path fill-rule="evenodd" clip-rule="evenodd" d="M172 200.351H192V143.351H172V200.351Z" fill="#E3ECFA"/>
<path fill-rule="evenodd" clip-rule="evenodd" d="M179.772 200.351H191V193.351H168L179.772 200.351Z" fill="#E3ECFA"/>
<path fill-rule="evenodd" clip-rule="evenodd" d="M115 200.351H134V143.351H115V200.351Z" fill="#DAE2F0"/>
<path fill-rule="evenodd" clip-rule="evenodd" d="M125 198.351H191V142.351H125V198.351Z" fill="#E3ECFA"/>
<path fill-rule="evenodd" clip-rule="evenodd" d="M135.228 200.351H124V193.351H147L135.228 200.351Z" fill="#E3ECFA"/>
<path fill-rule="evenodd" clip-rule="evenodd" d="M133 177.351H182V149.351H133V177.351Z" fill="#FCFEFF"/>
<path fill-rule="evenodd" clip-rule="evenodd" d="M133 195.351H182V181.351H133V195.351Z" fill="#FCFEFF"/>
<path fill-rule="evenodd" clip-rule="evenodd" d="M162.256 151.351H152.744C151.228 151.351 150 150.009 150 148.351H165C165 150.009 163.772 151.351 162.256 151.351Z" fill="#E4E4DE"/>
<path fill-rule="evenodd" clip-rule="evenodd" d="M162.256 182.351H152.744C151.228 182.351 150 181.008 150 179.351H165C165 181.008 163.772 182.351 162.256 182.351Z" fill="#E3ECFA"/>
<path fill-rule="evenodd" clip-rule="evenodd" d="M125 143.351H263V140.351H125V143.351Z" fill="#DAE2F0"/>
<path fill-rule="evenodd" clip-rule="evenodd" d="M116 143.351H125V140.351H116V143.351Z" fill="#D4D5CF"/>
<path fill-rule="evenodd" clip-rule="evenodd" d="M52.199 147.181C51.166 124.883 50.0641 102.712 52.3199 91.5272L56 89.3513C56 89.3513 55.1934 91.4364 54.7706 125.599C54.4761 149.346 54.1325 148.056 54.1017 146.766C54.0878 146.199 54.1347 145.633 54.2717 147.181H52.199Z" fill="#DDDED8"/>
<path fill-rule="evenodd" clip-rule="evenodd" d="M56.9889 68.2196C61.6917 56.0171 72.6489 44.2338 84.5535 39.4139C89.2271 37.5213 82.4932 79.1353 65.5482 81.8173C57.2731 83.1271 54.6969 104.218 53.3017 114.351C52.8283 94.4209 52.2867 80.4227 56.9889 68.2196Z" fill="#DDDED8"/>
<path fill-rule="evenodd" clip-rule="evenodd" d="M56.2107 99.7136C59.3996 94.5662 64.6141 87.3584 72.2317 87.3513C80.8668 87.3435 73.3102 101.82 63.1604 106.443C58.2039 108.701 54.0726 115.867 53 120.351C53.0891 111.262 53.0211 104.861 56.2107 99.7136Z" fill="#DDDED8"/>
<path fill-rule="evenodd" clip-rule="evenodd" d="M47.6949 82.7301C41.842 72.5065 28.797 62.2262 14.9085 57.549C9.45598 55.7124 8.91822 85.9959 38.3165 93.2428C47.8113 95.5832 51.6177 112.151 53.5862 120.481C53.4222 104.303 53.5472 92.9531 47.6949 82.7301Z" fill="#DAE2F0"/>
<path fill-rule="evenodd" clip-rule="evenodd" d="M51.4054 106.982C47.6395 100.487 37.4018 97.3119 28.195 97.9187C24.5796 98.1564 24.1848 111.487 44.2921 116.635C50.3909 118.196 52.8517 128.648 54.1181 133.94C54.0125 123.661 55.1714 113.477 51.4054 106.982Z" fill="#DAE2F0"/>
<path fill-rule="evenodd" clip-rule="evenodd" d="M51.1884 72.2367C48.274 63.0593 39.6835 54.8334 31.799 51.4331C28.7035 50.0982 27.7519 65.3169 44.6735 80.2155C49.8058 84.7351 51.4242 97.9001 52.2607 104.575C52.6444 92.6587 54.1029 81.4141 51.1884 72.2367Z" fill="#DAE2F0"/>
<path fill-rule="evenodd" clip-rule="evenodd" d="M53.2759 155.351C47.0706 155.351 41.9423 154.905 41.5856 146.633L40.5518 135.775H66L64.9662 146.633C64.6101 154.905 59.4819 155.351 53.2759 155.351Z" fill="#E3ECFA"/>
<path fill-rule="evenodd" clip-rule="evenodd" d="M64.3228 139.351H40.6772L40 134.351H65L64.3228 139.351Z" fill="#E3ECFA"/>
<path fill-rule="evenodd" clip-rule="evenodd" d="M271 221.852C271 225.994 217.946 229.351 152.5 229.351C87.0542 229.351 34 225.994 34 221.852C34 217.709 87.0542 214.351 152.5 214.351C217.946 214.351 271 217.709 271 221.852Z" fill="#E3ECFA"/>
<path fill-rule="evenodd" clip-rule="evenodd" d="M44.4952 39.3513L44 26.3829L44.5048 26.3513L45 39.3197L44.4952 39.3513Z" fill="#3F8CFF"/>
<path fill-rule="evenodd" clip-rule="evenodd" d="M44.3252 50.3513L44 43.3851L44.6748 43.3513L45 50.3167L44.3252 50.3513Z" fill="#3F8CFF"/>
<path fill-rule="evenodd" clip-rule="evenodd" d="M52.6579 151.351C52.0802 151.351 51.6044 150.899 51.5763 150.323L45.0025 15.4851C44.9726 14.8685 45.4654 14.3513 46.0841 14.3513H229.343C229.92 14.3513 230.396 14.8038 230.424 15.3802L236.998 150.218C237.027 150.835 236.535 151.351 235.916 151.351H52.6579Z" fill="#3F8CFF"/>
<path fill-rule="evenodd" clip-rule="evenodd" d="M223.887 148.351H55.4219C54.8457 148.351 54.3713 147.894 54.3438 147.312L48.0025 15.4973C47.9727 14.874 48.4642 14.3513 49.0812 14.3513H227.432C228.008 14.3513 228.482 14.8087 228.51 15.3912L231.105 69.323C229.837 67.7097 228.417 66.2043 227.051 65.3974C226.077 64.7457 224.923 64.3376 223.669 64.268C223.583 64.263 223.497 64.2587 223.411 64.2544C221.196 62.0888 221.632 57.5935 222.302 54.3484L215.58 58.1415C216.09 60.3183 216.148 62.9549 214.396 64.1854C214.061 64.2051 213.743 64.2279 213.447 64.255C212.346 64.3561 211.265 64.517 210.301 64.689C210.058 64.7328 209.819 64.7901 209.587 64.861C208.641 65.1273 207.595 65.663 206.461 66.5273C201.805 70.0757 198.349 77.593 198.349 77.593L199.453 78.2057C198.427 79.3487 197.362 80.4657 196.26 81.5624C195.054 82.7565 193.845 83.8902 192.531 85.133C192.496 85.1367 192.459 85.1404 192.421 85.1429C192.378 85.1453 192.333 85.1465 192.287 85.1465C192.001 85.1465 191.648 85.0997 191.267 85.0017C190.648 84.8463 189.968 84.5893 189.276 84.2662C189.315 83.4981 189.35 82.7337 189.379 81.981L194.94 81.7967C195.263 78.7704 194.822 73.7308 194.076 68.5105C193.44 63.0431 192.349 56.8173 191.188 50.4745L185.64 50.8308L184.265 22.2495C184.25 21.9486 183.989 21.7168 183.709 21.7168C183.702 21.7168 183.694 21.7174 183.686 21.7174C183.381 21.7329 183.146 21.9949 183.161 22.3031L184.537 50.9017L161.802 52.3633C161.872 52.6747 161.942 52.986 162.011 53.2961H162.01C162.011 53.301 162.012 53.3059 162.014 53.3115C162.123 53.8034 162.23 54.2941 162.336 54.783C163.22 58.9146 163.902 62.9438 164.396 66.7961L160.69 66.2086C160.749 77.2915 159.572 87.4373 157.656 95.4108L186.946 100.97L188.845 140.454C188.86 140.753 189.104 140.986 189.396 140.986L189.424 140.985C189.728 140.97 189.964 140.708 189.949 140.399L187.887 97.5357C188.298 95.3731 188.622 92.7821 188.869 90.0506C189.066 90.1418 189.267 90.2293 189.473 90.3138C190.225 90.6146 191.061 90.8674 192.017 90.9783C192.283 91.0098 192.561 91.027 192.848 91.027C193.586 91.027 194.382 90.9118 195.168 90.6257L195.578 90.4759L196.079 90.0586C197.492 88.8817 199.09 87.5982 200.571 86.2525C201.869 85.0917 203.138 83.8772 204.356 82.6005C204.364 83.2676 204.378 83.9586 204.399 84.6762C204.407 85.0171 204.419 85.3685 204.433 85.7285C204.607 90.5659 205.062 96.5167 205.945 103.826H210.497L208.931 109.146L212.202 110.132C212.188 110.223 212.174 110.313 212.161 110.404L215.684 111.181L215.853 111.232C217.767 120.132 220.995 135.11 223.17 145.073C223.425 146.24 223.665 147.34 223.887 148.351ZM97.9523 127.234L98.5882 140.454C98.6034 140.753 98.8471 140.986 99.14 140.986L99.1674 140.985C99.472 140.97 99.7071 140.708 99.6925 140.399L99.0535 127.121L114.492 125.533C114.414 118.569 110.875 102.395 108.777 96.3336L97.6374 97.6732L96.6829 77.8389L100.147 77.6503C98.5894 67.1666 97.4565 57.0954 97.1251 47.8002L95.2418 47.8736L94.009 22.2495C93.9938 21.9486 93.7379 21.7168 93.4535 21.7168C93.4456 21.7168 93.4383 21.7174 93.4303 21.7174C93.1258 21.7329 92.8901 21.9949 92.9047 22.3031L94.1369 47.9168L68.3866 48.9228C68.3233 57.4492 69.0365 68.9624 70.7323 79.255L95.5792 77.8993L96.5367 97.8057L80.3213 99.7556C83.3473 110.555 83.474 120.343 84.3133 128.637L97.9523 127.234ZM107.623 57.1176L107.622 86.787L137.19 88.5926L137.192 58.9232L107.623 57.1176ZM234 129.51C233.175 124.736 232.339 120.031 231.61 115.982L233.375 116.514L234 129.51ZM231.868 85.1953L229.075 84.5788C229.101 83.6985 229.135 82.8009 229.18 81.8904L229.648 81.4064C230.456 82.6301 231.209 83.8705 231.865 85.1225L231.868 85.1953ZM192.927 85.0306L192.999 84.9856C192.979 85.0011 192.955 85.0159 192.927 85.0306Z" fill="#F4F9FD"/>
<path d="M64.1331 28.7106L62.6143 28.7371L62.6004 27.9392L66.5198 27.8708L66.5337 28.6687L65.0149 28.6952L65.0875 32.8525L64.2056 32.8679L64.1331 28.7106ZM66.1563 31.1536C66.1516 30.8877 66.1941 30.6466 66.2837 30.4303C66.3778 30.2093 66.5052 30.0204 66.6658 29.8635C66.8264 29.7067 67.018 29.5843 67.2405 29.4964C67.463 29.4086 67.7002 29.3624 67.9522 29.358C68.2042 29.3536 68.4429 29.3915 68.6683 29.4715C68.8937 29.5516 69.0894 29.6672 69.2554 29.8183C69.4214 29.9695 69.553 30.1539 69.6501 30.3715C69.7519 30.5845 69.8051 30.8239 69.8097 31.0899C69.8143 31.3558 69.7696 31.5993 69.6754 31.8203C69.5859 32.0366 69.4608 32.2231 69.3001 32.3799C69.1395 32.5368 68.948 32.6591 68.7255 32.747C68.503 32.8349 68.2657 32.8811 68.0138 32.8855C67.7618 32.8899 67.5231 32.852 67.2977 32.772C67.0722 32.6919 66.8765 32.5763 66.7105 32.4251C66.5445 32.274 66.4107 32.092 66.3089 31.8791C66.2118 31.6614 66.1609 31.4196 66.1563 31.1536ZM66.9961 31.139C66.9984 31.2696 67.0216 31.3952 67.0657 31.5158C67.1145 31.6363 67.1817 31.7425 67.2673 31.8343C67.3576 31.9261 67.4639 31.9989 67.5862 32.0528C67.7085 32.1067 67.8466 32.1323 68.0006 32.1296C68.1546 32.1269 68.2917 32.0965 68.412 32.0384C68.5324 31.9803 68.6337 31.9038 68.7161 31.809C68.8031 31.7142 68.8666 31.6057 68.9064 31.4837C68.951 31.3615 68.9721 31.2352 68.9698 31.1045C68.9676 30.9739 68.942 30.8483 68.8932 30.7278C68.8491 30.6072 68.7819 30.501 68.6917 30.4093C68.606 30.3174 68.5021 30.2445 68.3798 30.1907C68.2575 30.1368 68.1194 30.1112 67.9654 30.1139C67.8114 30.1166 67.6743 30.147 67.5539 30.2051C67.4336 30.2632 67.3299 30.3397 67.2429 30.4346C67.1605 30.5293 67.0971 30.6378 67.0525 30.7599C67.0127 30.882 66.9939 31.0083 66.9961 31.139ZM72.6868 27.7631L74.6395 27.7291C74.9662 27.7233 75.282 27.7692 75.5871 27.8665C75.8921 27.9592 76.163 28.1062 76.3999 28.3074C76.6368 28.5086 76.8279 28.7643 76.9734 29.0745C77.1187 29.38 77.1951 29.7428 77.2024 30.1627C77.2098 30.5873 77.1346 30.9573 76.9767 31.2728C76.8235 31.5835 76.6203 31.8438 76.3673 32.0536C76.1188 32.2586 75.8392 32.4152 75.5283 32.5233C75.2221 32.6266 74.9197 32.6809 74.621 32.6861L72.7733 32.7184L72.6868 27.7631ZM74.2992 31.8936C74.5745 31.8888 74.8329 31.854 75.0745 31.7891C75.3206 31.7194 75.5335 31.6177 75.7132 31.4839C75.8928 31.3454 76.0321 31.1703 76.1311 30.9585C76.2347 30.742 76.2838 30.4821 76.2785 30.1788C76.2733 29.8802 76.2222 29.6244 76.1251 29.4114C76.0281 29.1984 75.8944 29.028 75.7241 28.9003C75.5585 28.7678 75.3608 28.6733 75.1311 28.6166C74.906 28.5552 74.6581 28.5268 74.3875 28.5316L73.5826 28.5456L73.6413 31.9051L74.2992 31.8936ZM77.8098 30.9502C77.8051 30.6843 77.8476 30.4431 77.9372 30.2269C78.0313 30.0059 78.1587 29.817 78.3193 29.6601C78.4799 29.5033 78.6715 29.3809 78.894 29.293C79.1165 29.2051 79.3537 29.159 79.6057 29.1546C79.8577 29.1502 80.0964 29.188 80.3218 29.2681C80.5472 29.3482 80.7429 29.4638 80.9089 29.6149C81.0749 29.766 81.2065 29.9504 81.3036 30.1681C81.4054 30.381 81.4586 30.6205 81.4632 30.8864C81.4678 31.1524 81.4231 31.3959 81.3289 31.6169C81.2394 31.8332 81.1143 32.0197 80.9536 32.1765C80.793 32.3334 80.6015 32.4557 80.379 32.5436C80.1565 32.6315 79.9192 32.6777 79.6673 32.6821C79.4153 32.6865 79.1766 32.6486 78.9512 32.5685C78.7257 32.4885 78.53 32.3729 78.364 32.2217C78.198 32.0706 78.0642 31.8886 77.9624 31.6757C77.8653 31.458 77.8144 31.2162 77.8098 30.9502ZM78.6496 30.9356C78.6519 31.0662 78.6751 31.1918 78.7192 31.3124C78.768 31.4329 78.8352 31.5391 78.9208 31.6309C79.0111 31.7227 79.1174 31.7955 79.2397 31.8494C79.362 31.9033 79.5001 31.9289 79.6541 31.9262C79.8081 31.9235 79.9452 31.8931 80.0655 31.835C80.1859 31.7769 80.2872 31.7004 80.3696 31.6056C80.4566 31.5108 80.5201 31.4023 80.5599 31.2803C80.6045 31.1581 80.6256 31.0317 80.6233 30.9011C80.6211 30.7705 80.5955 30.6449 80.5467 30.5244C80.5026 30.4038 80.4354 30.2976 80.3452 30.2059C80.2595 30.114 80.1556 30.0411 80.0333 29.9873C79.911 29.9334 79.7729 29.9078 79.6189 29.9105C79.4649 29.9132 79.3278 29.9436 79.2074 30.0017C79.0871 30.0598 78.9834 30.1363 78.8964 30.2311C78.814 30.3259 78.7506 30.4344 78.706 30.5565C78.6661 30.6786 78.6474 30.8049 78.6496 30.9356Z" fill="#3F8CFF"/>
<path d="M98.2376 27.6257L99.1195 27.6103L99.206 32.5656L98.3241 32.581L98.2376 27.6257ZM100.157 29.1885L100.955 29.1745L100.965 29.7135L100.979 29.7132C101.055 29.5439 101.174 29.3971 101.335 29.2729C101.496 29.1441 101.717 29.0772 101.997 29.0724C102.221 29.0684 102.41 29.1025 102.566 29.1744C102.726 29.2463 102.856 29.3421 102.956 29.4617C103.056 29.5813 103.128 29.72 103.173 29.8779C103.218 30.0359 103.242 30.2011 103.245 30.3738L103.282 32.4944L102.442 32.5091L102.412 30.8084C102.41 30.715 102.404 30.6125 102.393 30.5007C102.381 30.3842 102.354 30.2773 102.31 30.1801C102.271 30.0781 102.209 29.9951 102.124 29.9313C102.038 29.8627 101.924 29.8297 101.779 29.8323C101.639 29.8347 101.52 29.8601 101.423 29.9085C101.331 29.9568 101.252 30.0212 101.189 30.1016C101.129 30.182 101.087 30.2738 101.06 30.3769C101.034 30.48 101.022 30.5876 101.024 30.6996L101.056 32.5333L100.216 32.548L100.157 29.1885ZM106.296 27.4851L107.962 27.456C108.2 27.4518 108.429 27.4712 108.649 27.514C108.874 27.5568 109.071 27.6327 109.241 27.7417C109.411 27.8461 109.547 27.9908 109.648 28.1757C109.754 28.3559 109.809 28.5836 109.814 28.8589C109.819 29.1715 109.77 29.4244 109.666 29.6176C109.562 29.8108 109.42 29.9626 109.24 30.0731C109.06 30.1789 108.849 30.2526 108.607 30.2942C108.37 30.3357 108.12 30.3587 107.859 30.3632L107.229 30.3742L107.265 32.4249L106.383 32.4403L106.296 27.4851ZM107.748 29.6091C107.874 29.6069 108.004 29.5999 108.139 29.5882C108.275 29.5765 108.398 29.5464 108.509 29.4978C108.625 29.4491 108.717 29.3774 108.785 29.2829C108.858 29.1883 108.893 29.057 108.89 28.889C108.888 28.735 108.853 28.6143 108.786 28.5268C108.719 28.4346 108.634 28.3661 108.53 28.3212C108.427 28.2717 108.312 28.241 108.186 28.2292C108.06 28.2174 107.938 28.2125 107.821 28.2146L107.192 28.2256L107.216 29.6183L107.748 29.6091ZM110.526 29.0075L111.366 28.9928L111.375 29.5247L111.389 29.5245C111.479 29.3269 111.609 29.1729 111.78 29.0626C111.951 28.9523 112.148 28.8952 112.372 28.8912C112.424 28.8903 112.473 28.8942 112.519 28.9027C112.571 28.9111 112.622 28.9219 112.674 28.935L112.688 29.7469C112.618 29.7294 112.548 29.7166 112.478 29.7085C112.412 29.6957 112.346 29.6898 112.281 29.691C112.085 29.6944 111.927 29.7345 111.807 29.8112C111.692 29.8833 111.602 29.9665 111.539 30.061C111.479 30.1554 111.439 30.2494 111.417 30.3431C111.4 30.4368 111.392 30.5069 111.393 30.5536L111.424 32.3523L110.585 32.367L110.526 29.0075ZM112.985 30.6448C112.98 30.3789 113.022 30.1378 113.112 29.9215C113.206 29.7005 113.334 29.5116 113.494 29.3547C113.655 29.1979 113.846 29.0755 114.069 28.9876C114.291 28.8998 114.529 28.8536 114.781 28.8492C115.032 28.8448 115.271 28.8827 115.497 28.9627C115.722 29.0428 115.918 29.1584 116.084 29.3095C116.25 29.4607 116.381 29.6451 116.478 29.8627C116.58 30.0757 116.633 30.3151 116.638 30.5811C116.643 30.847 116.598 31.0905 116.504 31.3115C116.414 31.5278 116.289 31.7143 116.128 31.8711C115.968 32.028 115.776 32.1503 115.554 32.2382C115.331 32.3261 115.094 32.3723 114.842 32.3767C114.59 32.3811 114.351 32.3432 114.126 32.2632C113.901 32.1831 113.705 32.0675 113.539 31.9163C113.373 31.7652 113.239 31.5832 113.137 31.3703C113.04 31.1526 112.989 30.9108 112.985 30.6448ZM113.824 30.6302C113.827 30.7608 113.85 30.8864 113.894 31.007C113.943 31.1275 114.01 31.2337 114.096 31.3255C114.186 31.4173 114.292 31.4901 114.414 31.544C114.537 31.5979 114.675 31.6235 114.829 31.6208C114.983 31.6181 115.12 31.5877 115.24 31.5296C115.361 31.4715 115.462 31.395 115.544 31.3002C115.631 31.2054 115.695 31.0969 115.735 30.9749C115.779 30.8527 115.8 30.7264 115.798 30.5957C115.796 30.4651 115.77 30.3395 115.722 30.219C115.677 30.0984 115.61 29.9922 115.52 29.9005C115.434 29.8086 115.33 29.7357 115.208 29.6819C115.086 29.628 114.948 29.6024 114.794 29.6051C114.64 29.6078 114.503 29.6382 114.382 29.6963C114.262 29.7544 114.158 29.8309 114.071 29.9258C113.989 30.0205 113.925 30.129 113.881 30.2511C113.841 30.3732 113.822 30.4995 113.824 30.6302ZM120.853 28.8272L120.906 31.8858C120.911 32.1891 120.879 32.4627 120.808 32.7066C120.738 32.9552 120.625 33.1649 120.469 33.3356C120.318 33.5109 120.125 33.6473 119.888 33.7448C119.652 33.8423 119.37 33.8939 119.044 33.8996C118.731 33.905 118.434 33.8705 118.153 33.7961C117.871 33.7217 117.61 33.5815 117.368 33.3757L117.86 32.681C118.031 32.8321 118.208 32.948 118.391 33.0288C118.575 33.1096 118.786 33.148 119.024 33.1438C119.224 33.1403 119.392 33.1094 119.526 33.051C119.665 32.9926 119.773 32.9137 119.851 32.8143C119.933 32.7149 119.989 32.5949 120.02 32.4543C120.055 32.3184 120.071 32.1664 120.068 31.9984L120.063 31.7535L120.049 31.7537C119.931 31.9191 119.772 32.0456 119.573 32.1331C119.374 32.2159 119.169 32.2591 118.959 32.2628C118.707 32.2672 118.478 32.2269 118.271 32.1418C118.064 32.0521 117.885 31.9315 117.733 31.7801C117.585 31.6287 117.47 31.4487 117.387 31.2401C117.304 31.0315 117.261 30.8082 117.256 30.5703C117.252 30.323 117.285 30.0913 117.356 29.8754C117.427 29.6595 117.534 29.4709 117.675 29.3098C117.817 29.1486 117.988 29.0219 118.187 28.9298C118.391 28.8329 118.623 28.7821 118.884 28.7776C119.122 28.7734 119.345 28.8162 119.552 28.9059C119.759 28.9957 119.925 29.1421 120.049 29.3453L120.063 29.3451L120.055 28.8412L120.853 28.8272ZM119.073 29.5304C118.923 29.533 118.788 29.561 118.668 29.6145C118.547 29.6633 118.444 29.7327 118.357 29.8229C118.274 29.9084 118.208 30.0146 118.159 30.1414C118.115 30.2636 118.094 30.3993 118.096 30.5486C118.099 30.6839 118.124 30.8095 118.173 30.9253C118.226 31.0411 118.298 31.1425 118.388 31.2296C118.478 31.3167 118.584 31.3849 118.707 31.4341C118.829 31.4833 118.96 31.5067 119.1 31.5042C119.254 31.5015 119.391 31.4735 119.512 31.42C119.637 31.3665 119.74 31.297 119.823 31.2116C119.91 31.1214 119.976 31.0152 120.02 30.8931C120.065 30.7709 120.086 30.6399 120.084 30.4999C120.078 30.206 119.986 29.9695 119.805 29.7907C119.625 29.6118 119.38 29.525 119.073 29.5304ZM121.804 28.8106L122.643 28.796L122.653 29.3279L122.667 29.3276C122.757 29.13 122.887 28.9761 123.058 28.8658C123.228 28.7554 123.426 28.6983 123.65 28.6944C123.701 28.6935 123.75 28.6973 123.797 28.7058C123.849 28.7143 123.9 28.725 123.952 28.7381L123.966 29.55C123.895 29.5326 123.825 29.5198 123.755 29.5117C123.69 29.4988 123.624 29.493 123.559 29.4941C123.363 29.4975 123.205 29.5376 123.085 29.6144C122.969 29.6864 122.88 29.7697 122.816 29.8641C122.757 29.9585 122.717 30.0526 122.695 30.1463C122.678 30.2399 122.67 30.3101 122.671 30.3567L122.702 32.1555L121.862 32.1701L121.804 28.8106ZM125.107 30.7273C125.14 30.9787 125.241 31.173 125.411 31.31C125.582 31.4471 125.786 31.5135 126.024 31.5094C126.234 31.5057 126.408 31.4607 126.547 31.3742C126.69 31.2831 126.814 31.1712 126.919 31.0387L127.529 31.4831C127.337 31.7292 127.121 31.9056 126.88 32.0125C126.639 32.1194 126.386 32.1752 126.12 32.1798C125.868 32.1842 125.629 32.1464 125.404 32.0663C125.178 31.9862 124.982 31.8706 124.816 31.7195C124.65 31.5684 124.517 31.3863 124.415 31.1734C124.318 30.9557 124.267 30.7139 124.262 30.448C124.258 30.182 124.3 29.9409 124.39 29.7246C124.484 29.5036 124.611 29.3147 124.772 29.1579C124.932 29.0011 125.124 28.8787 125.346 28.7908C125.569 28.7029 125.806 28.6568 126.058 28.6524C126.291 28.6483 126.504 28.6866 126.697 28.7672C126.895 28.8431 127.062 28.9569 127.2 29.1085C127.343 29.26 127.454 29.4495 127.532 29.6768C127.615 29.8994 127.66 30.1576 127.665 30.4516L127.669 30.6826L125.107 30.7273ZM126.818 30.0673C126.809 29.8201 126.729 29.6278 126.577 29.4904C126.425 29.3484 126.216 29.2797 125.95 29.2843C125.698 29.2887 125.499 29.3646 125.352 29.5118C125.21 29.659 125.125 29.8542 125.096 30.0974L126.818 30.0673ZM130.228 29.5947C130.06 29.3689 129.839 29.2585 129.564 29.2633C129.452 29.2652 129.343 29.2951 129.236 29.353C129.13 29.4109 129.078 29.5028 129.08 29.6288C129.082 29.7314 129.128 29.8053 129.217 29.8504C129.306 29.8955 129.419 29.9332 129.555 29.9635C129.691 29.9938 129.836 30.0263 129.991 30.0609C130.15 30.0908 130.298 30.1419 130.435 30.2142C130.571 30.2818 130.685 30.3779 130.776 30.5023C130.866 30.6267 130.914 30.7986 130.918 31.0179C130.921 31.2185 130.88 31.3896 130.794 31.5312C130.712 31.6679 130.602 31.7795 130.463 31.866C130.33 31.9523 130.177 32.0157 130.005 32.056C129.833 32.0963 129.66 32.118 129.488 32.121C129.226 32.1256 128.985 32.0925 128.765 32.0216C128.544 31.9508 128.346 31.8189 128.17 31.626L128.721 31.0913C128.83 31.2107 128.946 31.309 129.069 31.3862C129.196 31.4587 129.348 31.4934 129.526 31.4903C129.586 31.4892 129.649 31.4811 129.714 31.466C129.779 31.4508 129.84 31.4264 129.895 31.3928C129.95 31.3592 129.994 31.3187 130.026 31.2715C130.062 31.2195 130.08 31.1609 130.079 31.0956C130.077 30.9789 130.031 30.8934 129.941 30.8389C129.852 30.7845 129.739 30.7421 129.603 30.7118C129.467 30.6768 129.32 30.6467 129.16 30.6215C129.006 30.5915 128.86 30.5451 128.724 30.4821C128.587 30.4145 128.474 30.3208 128.383 30.201C128.292 30.0813 128.245 29.914 128.241 29.6994C128.238 29.5128 128.272 29.3512 128.345 29.2145C128.422 29.0732 128.522 28.9571 128.647 28.8662C128.771 28.7754 128.915 28.7075 129.077 28.6627C129.24 28.6178 129.405 28.5939 129.573 28.591C129.797 28.5871 130.019 28.6229 130.24 28.6984C130.461 28.7692 130.64 28.8968 130.779 29.081L130.228 29.5947ZM133.338 29.5404C133.17 29.3147 132.949 29.2042 132.674 29.209C132.562 29.2109 132.453 29.2408 132.346 29.2987C132.24 29.3566 132.188 29.4485 132.19 29.5745C132.192 29.6771 132.237 29.751 132.327 29.7961C132.416 29.8412 132.529 29.8789 132.665 29.9092C132.801 29.9395 132.946 29.972 133.101 30.0067C133.26 30.0365 133.408 30.0876 133.544 30.1599C133.681 30.2276 133.795 30.3236 133.886 30.448C133.976 30.5725 134.024 30.7443 134.028 30.9636C134.031 31.1643 133.99 31.3353 133.903 31.4769C133.822 31.6136 133.712 31.7253 133.573 31.8117C133.439 31.898 133.286 31.9614 133.115 32.0017C132.943 32.0421 132.77 32.0637 132.598 32.0667C132.336 32.0713 132.095 32.0382 131.875 31.9673C131.654 31.8965 131.456 31.7646 131.28 31.5717L131.83 31.037C131.94 31.1564 132.056 31.2547 132.179 31.3319C132.306 31.4044 132.458 31.4391 132.636 31.436C132.696 31.4349 132.759 31.4268 132.824 31.4117C132.889 31.3966 132.949 31.3722 133.005 31.3385C133.06 31.3049 133.104 31.2645 133.136 31.2172C133.172 31.1652 133.19 31.1066 133.189 31.0413C133.187 30.9246 133.141 30.8391 133.051 30.7846C132.962 30.7302 132.849 30.6878 132.713 30.6575C132.577 30.6226 132.429 30.5925 132.27 30.5672C132.116 30.5373 131.97 30.4908 131.834 30.4278C131.697 30.3602 131.584 30.2665 131.493 30.1467C131.402 30.027 131.355 29.8598 131.351 29.6451C131.348 29.4585 131.382 29.2969 131.455 29.1603C131.532 29.0189 131.632 28.9028 131.757 28.8119C131.881 28.7211 132.025 28.6532 132.187 28.6084C132.35 28.5635 132.515 28.5397 132.683 28.5367C132.907 28.5328 133.129 28.5686 133.35 28.6441C133.571 28.7149 133.75 28.8425 133.889 29.0268L133.338 29.5404Z" fill="#3F8CFF"/>
<path d="M145.232 27.6143L146.114 27.5989L146.2 32.5542L145.318 32.5696L145.232 27.6143ZM147.152 29.1771L147.95 29.1631L147.959 29.702L147.973 29.7018C148.049 29.5324 148.168 29.3857 148.329 29.2615C148.491 29.1327 148.711 29.0658 148.991 29.0609C149.215 29.057 149.405 29.0911 149.56 29.163C149.72 29.2349 149.85 29.3307 149.95 29.4503C150.05 29.5699 150.122 29.7086 150.167 29.8665C150.212 30.0244 150.236 30.1897 150.239 30.3624L150.276 32.483L149.436 32.4977L149.406 30.797C149.405 30.7036 149.398 30.6011 149.387 30.4892C149.376 30.3728 149.348 30.2659 149.304 30.1686C149.265 30.0666 149.203 29.9837 149.118 29.9199C149.033 29.8513 148.918 29.8183 148.773 29.8209C148.633 29.8233 148.515 29.8487 148.418 29.8971C148.325 29.9454 148.247 30.0097 148.183 30.0902C148.124 30.1706 148.081 30.2623 148.055 30.3655C148.028 30.4686 148.016 30.5762 148.018 30.6882L148.05 32.5219L147.21 32.5365L147.152 29.1771ZM153.291 27.4737L155.013 27.4436C155.25 27.4394 155.48 27.4588 155.7 27.5016C155.924 27.5397 156.124 27.6109 156.298 27.7152C156.473 27.8195 156.613 27.9617 156.719 28.1419C156.825 28.3221 156.88 28.5522 156.885 28.8321C156.891 29.1914 156.796 29.4941 156.6 29.7403C156.408 29.9863 156.128 30.1382 155.761 30.196L157.115 32.3637L156.051 32.3822L154.866 30.3026L154.222 30.3138L154.259 32.4135L153.377 32.4289L153.291 27.4737ZM154.895 29.546C155.021 29.5438 155.147 29.5369 155.273 29.5254C155.399 29.5092 155.512 29.4792 155.614 29.4354C155.721 29.3869 155.806 29.3177 155.87 29.2279C155.933 29.1335 155.964 29.0046 155.961 28.8413C155.959 28.6966 155.926 28.5805 155.864 28.4929C155.802 28.4053 155.721 28.3414 155.623 28.3011C155.524 28.2561 155.414 28.2277 155.292 28.2158C155.175 28.2039 155.061 28.1989 154.949 28.2008L154.186 28.2141L154.209 29.5579L154.895 29.546ZM158.357 30.9558C158.389 31.2073 158.49 31.4015 158.661 31.5386C158.831 31.6756 159.035 31.7421 159.273 31.7379C159.483 31.7342 159.658 31.6892 159.796 31.6028C159.939 31.5116 160.063 31.3997 160.168 31.2672L160.778 31.7116C160.586 31.9577 160.37 32.1341 160.129 32.241C159.888 32.3479 159.635 32.4037 159.369 32.4083C159.117 32.4127 158.878 32.3749 158.653 32.2948C158.427 32.2147 158.232 32.0991 158.066 31.948C157.9 31.7969 157.766 31.6149 157.664 31.4019C157.567 31.1843 157.516 30.9424 157.512 30.6765C157.507 30.4105 157.549 30.1694 157.639 29.9531C157.733 29.7321 157.86 29.5432 158.021 29.3864C158.182 29.2296 158.373 29.1072 158.596 29.0193C158.818 28.9314 159.055 28.8853 159.307 28.8809C159.541 28.8768 159.754 28.9151 159.947 28.9957C160.144 29.0716 160.312 29.1854 160.45 29.337C160.592 29.4885 160.703 29.678 160.782 29.9053C160.865 30.1279 160.909 30.3861 160.914 30.6801L160.918 30.9111L158.357 30.9558ZM160.067 30.2958C160.058 30.0486 159.978 29.8563 159.826 29.7189C159.674 29.5769 159.465 29.5082 159.199 29.5128C158.947 29.5172 158.748 29.5931 158.601 29.7403C158.459 29.8875 158.374 30.0827 158.346 30.3259L160.067 30.2958ZM161.214 28.9316L162.131 28.9156L163.068 31.2516L163.082 31.2514L163.944 28.884L164.805 28.8689L163.54 32.2515L162.645 32.2671L161.214 28.9316ZM165.312 28.8601L166.152 28.8454L166.211 32.2049L165.371 32.2195L165.312 28.8601ZM165.174 27.7213C165.171 27.586 165.218 27.4685 165.314 27.3688C165.415 27.2644 165.543 27.2108 165.697 27.2081C165.851 27.2054 165.98 27.2522 166.084 27.3484C166.193 27.4398 166.249 27.5579 166.251 27.7025C166.254 27.8471 166.202 27.9694 166.097 28.0693C165.996 28.1644 165.868 28.2133 165.714 28.216C165.56 28.2186 165.431 28.1719 165.327 28.0757C165.227 27.9748 165.176 27.8566 165.174 27.7213ZM167.823 30.7905C167.855 31.042 167.957 31.2363 168.127 31.3733C168.297 31.5104 168.502 31.5768 168.74 31.5727C168.95 31.569 169.124 31.5239 169.262 31.4375C169.405 31.3463 169.53 31.2345 169.635 31.102L170.244 31.5464C170.053 31.7924 169.836 31.9689 169.596 32.0758C169.355 32.1827 169.101 32.2385 168.835 32.2431C168.583 32.2475 168.345 32.2097 168.119 32.1296C167.894 32.0495 167.698 31.9339 167.532 31.7828C167.366 31.6316 167.232 31.4496 167.131 31.2367C167.033 31.019 166.982 30.7772 166.978 30.5112C166.973 30.2453 167.016 30.0042 167.105 29.7879C167.199 29.5669 167.327 29.378 167.487 29.2212C167.648 29.0643 167.84 28.942 168.062 28.8541C168.285 28.7662 168.522 28.72 168.774 28.7156C169.007 28.7116 169.22 28.7498 169.413 28.8305C169.61 28.9064 169.778 29.0202 169.916 29.1718C170.059 29.3233 170.169 29.5127 170.248 29.7401C170.331 29.9626 170.375 30.2209 170.38 30.5149L170.384 30.7458L167.823 30.7905ZM169.534 30.1306C169.525 29.8834 169.444 29.6911 169.292 29.5537C169.141 29.4117 168.932 29.343 168.666 29.3476C168.414 29.352 168.214 29.4278 168.068 29.5751C167.926 29.7223 167.84 29.9174 167.812 30.1606L169.534 30.1306ZM170.68 28.7664L171.59 28.7505L172.359 31.0894L172.373 31.0892L173.011 28.7257L173.921 28.7098L174.69 31.0487L174.704 31.0485L175.363 28.6846L176.21 28.6698L175.127 32.0493L174.295 32.0638L173.457 29.7821L173.443 29.7823L172.776 32.0903L171.908 32.1054L170.68 28.7664Z" fill="#3F8CFF"/>
<path d="M196.246 27.887L198.199 27.8529C198.526 27.8472 198.842 27.893 199.147 27.9904C199.452 28.0831 199.723 28.23 199.96 28.4313C200.196 28.6325 200.388 28.8882 200.533 29.1984C200.678 29.5039 200.755 29.8666 200.762 30.2865C200.769 30.7111 200.694 31.0812 200.536 31.3966C200.383 31.7074 200.18 31.9676 199.927 32.1774C199.678 32.3824 199.399 32.539 199.088 32.6471C198.782 32.7505 198.479 32.8048 198.181 32.81L196.333 32.8422L196.246 27.887ZM197.859 32.0175C198.134 32.0127 198.393 31.9778 198.634 31.9129C198.88 31.8433 199.093 31.7415 199.273 31.6077C199.452 31.4692 199.592 31.2941 199.691 31.0823C199.794 30.8658 199.843 30.6059 199.838 30.3027C199.833 30.004 199.782 29.7482 199.685 29.5352C199.588 29.3222 199.454 29.1519 199.284 29.0241C199.118 28.8917 198.92 28.7971 198.691 28.7404C198.466 28.679 198.218 28.6507 197.947 28.6554L197.142 28.6695L197.201 32.0289L197.859 32.0175ZM201.369 31.0741C201.365 30.8081 201.407 30.567 201.497 30.3507C201.591 30.1297 201.718 29.9408 201.879 29.784C202.04 29.6271 202.231 29.5048 202.454 29.4169C202.676 29.329 202.913 29.2828 203.165 29.2784C203.417 29.274 203.656 29.3119 203.881 29.392C204.107 29.472 204.303 29.5876 204.469 29.7388C204.635 29.8899 204.766 30.0743 204.863 30.292C204.965 30.5049 205.018 30.7443 205.023 31.0103C205.027 31.2762 204.983 31.5197 204.889 31.7407C204.799 31.957 204.674 32.1435 204.513 32.3004C204.353 32.4572 204.161 32.5796 203.939 32.6675C203.716 32.7554 203.479 32.8015 203.227 32.8059C202.975 32.8103 202.736 32.7725 202.511 32.6924C202.285 32.6123 202.09 32.4967 201.924 32.3456C201.758 32.1944 201.624 32.0124 201.522 31.7995C201.425 31.5818 201.374 31.34 201.369 31.0741ZM202.209 31.0594C202.212 31.19 202.235 31.3157 202.279 31.4362C202.328 31.5567 202.395 31.6629 202.48 31.7548C202.571 31.8465 202.677 31.9194 202.799 31.9732C202.922 32.0271 203.06 32.0527 203.214 32.05C203.368 32.0473 203.505 32.0169 203.625 31.9588C203.746 31.9007 203.847 31.8243 203.929 31.7295C204.016 31.6346 204.08 31.5262 204.12 31.4041C204.164 31.282 204.185 31.1556 204.183 31.0249C204.181 30.8943 204.155 30.7687 204.106 30.6482C204.062 30.5276 203.995 30.4215 203.905 30.3297C203.819 30.2378 203.715 30.165 203.593 30.1111C203.471 30.0572 203.333 30.0316 203.179 30.0343C203.025 30.037 202.887 30.0674 202.767 30.1255C202.647 30.1836 202.543 30.2601 202.456 30.355C202.374 30.4498 202.31 30.5582 202.266 30.6804C202.226 30.8024 202.207 30.9287 202.209 31.0594ZM205.78 29.3168L206.578 29.3029L206.587 29.8418L206.601 29.8416C206.678 29.6722 206.796 29.5254 206.958 29.4013C207.119 29.2724 207.339 29.2056 207.619 29.2007C207.843 29.1968 208.033 29.2308 208.188 29.3028C208.348 29.3747 208.478 29.4704 208.578 29.59C208.678 29.7096 208.751 29.8484 208.795 30.0063C208.84 30.1642 208.864 30.3295 208.867 30.5021L208.904 32.6228L208.064 32.6375L208.034 30.9367C208.033 30.8434 208.026 30.7408 208.015 30.629C208.004 30.5125 207.976 30.4056 207.933 30.3084C207.893 30.2064 207.831 30.1235 207.746 30.0596C207.661 29.9911 207.546 29.9581 207.401 29.9606C207.261 29.9631 207.143 29.9885 207.046 30.0368C206.953 30.0851 206.875 30.1495 206.811 30.23C206.752 30.3103 206.709 30.4021 206.683 30.5052C206.657 30.6084 206.644 30.7159 206.646 30.8279L206.678 32.6616L205.839 32.6763L205.78 29.3168ZM210.505 31.2086C210.538 31.4601 210.639 31.6544 210.809 31.7914C210.98 31.9285 211.184 31.9949 211.422 31.9908C211.632 31.9871 211.806 31.942 211.945 31.8556C212.088 31.7644 212.212 31.6526 212.317 31.5201L212.927 31.9645C212.735 32.2105 212.519 32.387 212.278 32.4939C212.037 32.6008 211.784 32.6565 211.518 32.6612C211.266 32.6656 211.027 32.6277 210.802 32.5477C210.576 32.4676 210.38 32.352 210.214 32.2009C210.048 32.0497 209.915 31.8677 209.813 31.6548C209.716 31.4371 209.665 31.1953 209.66 30.9293C209.655 30.6634 209.698 30.4223 209.788 30.206C209.882 29.985 210.009 29.7961 210.17 29.6392C210.33 29.4824 210.522 29.3601 210.744 29.2722C210.967 29.1843 211.204 29.1381 211.456 29.1337C211.689 29.1296 211.902 29.1679 212.095 29.2486C212.293 29.3245 212.46 29.4382 212.598 29.5899C212.741 29.7414 212.852 29.9308 212.93 30.1581C213.013 30.3807 213.058 30.639 213.063 30.933L213.067 31.1639L210.505 31.2086ZM212.216 30.5487C212.207 30.3015 212.127 30.1092 211.975 29.9718C211.823 29.8298 211.614 29.7611 211.348 29.7657C211.096 29.7701 210.897 29.8459 210.75 29.9932C210.608 30.1403 210.523 30.3355 210.494 30.5787L212.216 30.5487Z" fill="#3F8CFF"/>
<path fill-rule="evenodd" clip-rule="evenodd" d="M189.429 140.351C189.128 140.351 188.876 140.123 188.861 139.829L183.001 23.9263C182.986 23.6239 183.228 23.3669 183.542 23.3518C183.84 23.3391 184.123 23.5701 184.139 23.8736L189.999 139.776C190.014 140.079 189.771 140.336 189.457 140.351L189.429 140.351Z" fill="#3F8CFF"/>
<path fill-rule="evenodd" clip-rule="evenodd" d="M144.43 140.351C144.128 140.351 143.876 140.123 143.861 139.829L138.001 23.9263C137.986 23.6239 138.228 23.3669 138.543 23.3518C138.853 23.3391 139.123 23.5707 139.139 23.8736L144.999 139.776C145.014 140.079 144.771 140.336 144.457 140.351L144.43 140.351Z" fill="#3F8CFF"/>
<path fill-rule="evenodd" clip-rule="evenodd" d="M223.446 36.3513H53.554C53.248 36.3513 53 36.1274 53 35.8513C53 35.5751 53.248 35.3513 53.554 35.3513H223.446C223.752 35.3513 224 35.5751 224 35.8513C224 36.1274 223.752 36.3513 223.446 36.3513Z" fill="#3F8CFF"/>
<path fill-rule="evenodd" clip-rule="evenodd" d="M71.2929 80.3513C69.638 70.2075 68.9419 58.8607 69.0038 50.4576L94.1341 49.4661L95.5417 79.0152L71.2929 80.3513ZM96.6189 78.9557L95.2124 49.4236L97.0504 49.3513C97.3738 58.512 98.4794 68.4377 100 78.7698L96.6189 78.9557Z" fill="#DADFE4"/>
<path fill-rule="evenodd" clip-rule="evenodd" d="M95.6995 78.3513L94 49.3929L95.3019 49.3513L97 78.2929L95.6995 78.3513Z" fill="#B0C9DF"/>
<path fill-rule="evenodd" clip-rule="evenodd" d="M100 77.7692L70.9821 79.3513C69.3093 69.2077 68.265 59.3764 68 49.9339L97.0185 48.3513C97.3448 57.5124 98.4624 67.4379 100 77.7692Z" fill="#12499A"/>
<path fill-rule="evenodd" clip-rule="evenodd" d="M136.999 88.3513L108 86.5729L108.001 57.3513L137 59.1296L136.999 88.3513Z" fill="#DADFE4"/>
<path fill-rule="evenodd" clip-rule="evenodd" d="M135.663 87.3513L107 85.5829L107.337 56.3513L136 58.119L135.663 87.3513Z" fill="#FFFFFE"/>
<path fill-rule="evenodd" clip-rule="evenodd" d="M189.282 82.3513C189.301 81.8975 189.317 81.4478 189.331 81.0035L194.438 80.7513C194.775 77.7458 194.56 73.8657 194.02 69.4741C194.772 74.4645 195.217 79.2821 194.892 82.1751L189.282 82.3513ZM164.309 67.8694L164.079 67.8352C163.58 64.1526 162.892 60.3008 162 56.3513C162.908 60.3244 163.701 64.1868 164.309 67.8694Z" fill="#DADFE4"/>
<path fill-rule="evenodd" clip-rule="evenodd" d="M165.106 83.3513L193.839 81.8772C194.576 75.0627 192.669 63.904 190.522 52.3513L161 54.2207C163.461 65.0291 165.235 75.1475 165.106 83.3513Z" fill="#6D5DD3"/>
<path fill-rule="evenodd" clip-rule="evenodd" d="M83.9721 128.351C83.137 120.391 83.0109 110.999 80 100.635L96.1345 98.764L97.543 127.005L83.9721 128.351ZM98.6388 126.896L97.2297 98.6368L108.313 97.3513C110.401 103.168 113.922 118.689 114 125.373L98.6388 126.896Z" fill="#DADFE4"/>
<path fill-rule="evenodd" clip-rule="evenodd" d="M97.6873 127.351L96 98.4813L97.312 98.3513L99 127.24L97.6873 127.351Z" fill="#B0C9DF"/>
<path fill-rule="evenodd" clip-rule="evenodd" d="M84.9497 127.351L113.965 124.237C114.324 117.491 111.834 106.609 109.085 95.3513L80 98.7638C82.3552 109.3 84.6326 119.27 84.9497 127.351Z" fill="#FDC748"/>
<path fill-rule="evenodd" clip-rule="evenodd" d="M187.622 101.351L159 95.9137C160.873 88.115 162.023 78.1914 161.965 67.3513L165.587 67.9259C166.316 73.6094 166.624 78.9011 166.552 83.5547L180.96 83.0778C181.326 83.5825 181.681 84.0317 182.067 84.4887C182.489 84.991 182.918 85.4909 183.372 85.9708C184.281 86.9301 185.258 87.8418 186.344 88.692C186.57 88.8651 186.801 89.0369 187.038 89.2063L187.622 101.351ZM188.542 97.9921L188.155 89.9468C188.579 90.2048 189.025 90.4484 189.502 90.6709C189.26 93.3427 188.943 95.8769 188.542 97.9921ZM189.899 85.0133C189.602 84.8746 189.303 84.7233 189.006 84.5629C188.626 84.3609 188.245 84.145 187.865 83.9171L187.814 82.8505L190 82.7781C189.971 83.5143 189.938 84.262 189.899 85.0133ZM186.75 83.2189C186.59 83.1146 186.43 83.0085 186.27 82.9017L186.734 82.8861L186.75 83.2189Z" fill="#DADFE4"/>
<path fill-rule="evenodd" clip-rule="evenodd" d="M187.069 102.351L186.983 102.335L186.337 89.2166C186.732 89.4921 187.142 89.7611 187.572 90.0164L188 98.7066C187.726 100.118 187.417 101.356 187.069 102.351ZM187.251 83.5034C186.84 83.2624 186.428 83.0104 186.018 82.7492L186 82.3897L187.195 82.3513L187.251 83.5034Z" fill="#B0C9DF"/>
<path fill-rule="evenodd" clip-rule="evenodd" d="M164.947 84.3513C165.017 79.2893 164.715 73.5334 164 67.3513L164.218 67.3893C165.033 73.1609 165.498 78.5364 165.431 83.3104L180.097 82.463L178.967 83.6521C179.006 83.7131 179.044 83.7728 179.084 83.8325L164.947 84.3513ZM184.293 83.641C184.226 83.5905 184.158 83.54 184.091 83.4895C183.586 83.1222 183.08 82.7234 182.583 82.3194L184.687 82.1981L184.749 83.6239L184.293 83.641ZM185.808 83.5852L185.746 82.1364L188 82.0065C187.987 82.5011 187.971 83.0015 187.953 83.5065L185.808 83.5852Z" fill="#719CC6"/>
<path fill-rule="evenodd" clip-rule="evenodd" d="M186.055 82.3513L186 81.3927L186.944 81.3513L187 82.3252L186.055 82.3513Z" fill="#83A9CE"/>
<path fill-rule="evenodd" clip-rule="evenodd" d="M165.22 82.3513C165.287 77.8534 164.819 72.789 164 67.3513L187.874 71.2825C188.018 73.5107 188.044 77.1088 187.925 81.1228L185.657 81.2452L184.592 81.3033L182.476 81.4176C182.026 81.074 181.583 80.7267 181.154 80.3912L179.975 81.5529L165.22 82.3513Z" fill="#3769A4"/>
<path fill-rule="evenodd" clip-rule="evenodd" d="M159 93.6495L186.89 98.3513C189.05 92.0915 189.598 81.1806 190 69.8477L161.269 65.3513C161.326 76.0492 160.873 85.9526 159 93.6495Z" fill="#FFFFFE"/>
<path fill-rule="evenodd" clip-rule="evenodd" d="M227.14 68.3513C227.758 68.9733 228.28 69.5244 228.813 70.1305C229.344 70.7229 229.862 71.3222 230.371 71.9301C231.386 73.1458 232.357 74.3974 233.276 75.6953C234.186 77.0017 235.082 78.3206 235.875 79.727C236.683 81.1249 237.44 82.5634 238.06 84.1125L238.299 84.687L238.358 84.8333L238.433 85.0443L238.576 85.4689C238.651 85.7374 238.713 85.9978 238.769 86.2552C238.811 86.5002 238.86 86.752 238.89 86.989C239.007 87.9381 239.015 88.8046 238.986 89.6427C238.934 91.3145 238.697 92.8827 238.425 94.4237C237.844 97.5038 237.012 100.429 235.932 103.351L232.534 102.607C232.786 99.7027 233.018 96.7417 233.103 93.8905C233.154 92.4667 233.132 91.0535 233.033 89.7426C232.981 89.0891 232.888 88.4639 232.758 87.9406L232.66 87.5752L232.552 87.2821L232.184 86.5687C230.949 84.1791 229.312 81.8284 227.569 79.5493C226.692 78.4088 225.771 77.2881 224.839 76.1754C224.375 75.6181 223.9 75.0676 223.418 74.5264L222 72.949L227.14 68.3513Z" fill="#BE5B52"/>
<path fill-rule="evenodd" clip-rule="evenodd" d="M233.476 101.351L231 103.764L235.832 106.351C235.832 106.351 237.503 104.334 236.848 102.271L233.476 101.351Z" fill="#BD5B52"/>
<path fill-rule="evenodd" clip-rule="evenodd" d="M228 107.871L232.678 109.351L236 106.907L231.196 104.351L228 107.871Z" fill="#BD5B52"/>
<path fill-rule="evenodd" clip-rule="evenodd" d="M239.912 117.351L212 111.263C213.49 101.471 215.479 92.1303 218.088 83.3513L246 89.4385C243.535 97.9748 241.587 107.422 239.912 117.351Z" fill="#3769A4"/>
<path fill-rule="evenodd" clip-rule="evenodd" d="M235.969 118.351L209 110.32L217.031 83.3513L244 91.382L235.969 118.351Z" fill="#FFFFFE"/>
<path fill-rule="evenodd" clip-rule="evenodd" d="M209.998 48.8651C209.976 49.1411 209.735 49.3587 209.459 49.3511C209.184 49.3444 208.979 49.1145 209.002 48.8384C209.024 48.5623 209.265 48.3443 209.541 48.3514C209.816 48.359 210.021 48.589 209.998 48.8651Z" fill="#132529"/>
<path fill-rule="evenodd" clip-rule="evenodd" d="M211 49.3513C211 49.3513 210.013 51.7261 209 52.8478C209.643 53.5685 210.807 53.3038 210.807 53.3038L211 49.3513Z" fill="#A92D2F"/>
<path fill-rule="evenodd" clip-rule="evenodd" d="M211.828 49.3483L211.956 49.2564C212.025 49.1493 212.012 48.9945 211.925 48.9098C211.06 48.0684 210.176 48.4229 210.139 48.4388C210.033 48.483 209.976 48.6233 210.01 48.7521C210.045 48.8802 210.159 48.9482 210.262 48.9055C210.291 48.8947 210.984 48.6277 211.673 49.2984C211.718 49.3425 211.775 49.3584 211.828 49.3483Z" fill="#132529"/>
<path fill-rule="evenodd" clip-rule="evenodd" d="M221.879 55.3513C221.203 58.5477 220.762 62.9755 223 65.1087C223 65.1087 222.073 68.3513 216.056 68.3513C209.439 68.3513 212.91 65.5058 212.91 65.5058C215.671 64.663 215.687 61.571 215.09 59.0875L221.879 55.3513Z" fill="#BD5B52"/>
<path fill-rule="evenodd" clip-rule="evenodd" d="M207.716 215.521C207.638 215.521 207.564 215.526 207.499 215.54C207.395 215.561 207.323 215.6 207.278 215.659C207.197 215.765 207.224 215.817 207.253 215.848C207.469 216.08 208.666 216.086 209.548 215.991C209.112 215.82 208.27 215.521 207.716 215.521ZM208.456 216.218C207.848 216.218 207.262 216.154 207.069 215.947C207.001 215.875 206.949 215.751 207.085 215.575C207.16 215.476 207.281 215.409 207.443 215.376C208.234 215.212 209.877 215.929 209.946 215.96L210 216.047L209.91 216.117C209.607 216.163 209.021 216.218 208.456 216.218Z" fill="#3769A4"/>
<path fill-rule="evenodd" clip-rule="evenodd" d="M208.585 214.561L208.509 214.564C208.279 214.583 208.262 214.657 208.258 214.682C208.194 214.981 209.057 215.732 209.716 216.058C209.652 215.712 209.471 215 209.026 214.697C208.892 214.605 208.747 214.561 208.585 214.561ZM209.871 216.351L209.82 216.342C209.173 216.103 207.9 215.147 208.006 214.648C208.031 214.531 208.135 214.385 208.486 214.356C208.748 214.334 208.983 214.394 209.191 214.535C209.868 214.996 209.995 216.186 210 216.237L209.946 216.332L209.871 216.351Z" fill="#3769A4"/>
<path fill-rule="evenodd" clip-rule="evenodd" d="M214 216.351H209.327L209 205.351H213.673L214 216.351Z" fill="#BD5B52"/>
<path fill-rule="evenodd" clip-rule="evenodd" d="M210.649 215.351H215.728C215.918 215.351 216.08 215.477 216.119 215.652L216.985 219.561C217.075 219.966 216.744 220.35 216.305 220.343C214.474 220.313 211.828 220.212 209.526 220.212C206.834 220.212 205.136 220.351 201.979 220.351C200.07 220.351 199.564 218.526 200.366 218.361C204.014 217.608 206.356 217.528 209.525 215.694C209.869 215.495 210.248 215.351 210.649 215.351Z" fill="#0A1629"/>
<path fill-rule="evenodd" clip-rule="evenodd" d="M225.515 65.3516C229.888 65.3983 236 76.457 236 76.457L229.223 83.3513C229.223 83.3513 224.781 81.2892 222.313 76.258C219.728 70.9867 221.044 65.3035 225.515 65.3516Z" fill="#3769A4"/>
<path fill-rule="evenodd" clip-rule="evenodd" d="M229.077 83.3513C229.227 80.117 229.494 76.7124 229.937 73.2551C229.978 72.9298 229.999 72.6063 229.999 72.2873C230 69.8461 228.822 67.638 227 66.3513C230.787 68.7131 235 76.8897 235 76.8897L234.073 77.9006L229.077 83.3513Z" fill="#3A81EB"/>
<path fill-rule="evenodd" clip-rule="evenodd" d="M205.859 69.8466C204.931 74.5517 204.266 84.2137 206.549 103.351H229.285C229.459 100.251 227.998 86.7215 229.938 72.1952C230.462 68.2746 227.595 64.7275 223.739 64.5096C223.656 64.5048 223.573 64.5005 223.49 64.4963C220.587 64.3528 216.382 64.2584 213.825 64.4969C212.757 64.5962 211.709 64.7541 210.774 64.923C208.305 65.3704 206.356 67.3285 205.859 69.8466Z" fill="#3769A4"/>
<path fill-rule="evenodd" clip-rule="evenodd" d="M229.284 104.351H206.541C205.685 96.9907 205.243 90.9979 205.074 86.1262C207.363 85.5197 209.96 83.3921 210.859 80.7728C212.903 78.5968 215.454 75.1574 215.694 71.3586C215.707 71.1512 215.714 70.9457 215.714 70.7421C215.713 67.5808 214.145 64.905 211.433 64.905C211.008 64.905 210.554 64.9708 210.074 65.1112C210.3 65.0398 210.532 64.982 210.768 64.9379C211.703 64.7647 212.751 64.6027 213.819 64.5009C214.948 64.3929 216.397 64.3513 217.914 64.3513C219.835 64.3513 221.864 64.4183 223.487 64.5003C223.57 64.5046 223.653 64.5089 223.737 64.5139C227.289 64.72 230.002 67.8217 230 71.4511C229.999 71.7627 229.979 72.0787 229.938 72.3966C229.144 78.4931 228.919 84.4177 228.919 89.5091C228.919 96.1309 229.299 101.342 229.299 103.684C229.299 103.942 229.294 104.165 229.284 104.351ZM205.041 85.0665C205.021 84.3438 205.008 83.6479 205 82.9761C205.02 82.9544 205.04 82.9327 205.06 82.9109C205.025 83.5783 205.024 84.2979 205.041 85.0665Z" fill="#3F8CFF"/>
<path fill-rule="evenodd" clip-rule="evenodd" d="M204.528 87.3513C204.505 87.0091 204.485 86.6752 204.472 86.3513C204.488 86.6787 204.507 87.0127 204.528 87.3513Z" fill="#9AA9B8"/>
<path fill-rule="evenodd" clip-rule="evenodd" d="M204.053 87.3513C204.038 86.9491 204.025 86.5525 204.014 86.1635C203.992 85.3021 203.994 84.4956 204.036 83.7476C204.235 83.5445 204.434 83.3399 204.631 83.1339C204.808 82.9488 204.986 82.7631 205.162 82.5759L207.897 84.0461C207.897 84.0461 209.303 83.0372 211 81.3513C209.921 84.2869 206.801 86.6714 204.053 87.3513Z" fill="#3576D6"/>
<path fill-rule="evenodd" clip-rule="evenodd" d="M214.187 210.351H214.185L214 205.351H214.003L214.187 210.351Z" fill="#BEBFBB"/>
<path fill-rule="evenodd" clip-rule="evenodd" d="M214 211.351H209.173V211.341L209 205.351H213.826L214 211.351Z" fill="#914642"/>
<path fill-rule="evenodd" clip-rule="evenodd" d="M222.957 49.288C222.446 53.8264 222.373 56.5054 220.002 58.7475C216.437 62.1189 211.052 59.8079 210.227 55.2228C209.484 51.0957 210.445 44.3682 214.897 42.7387C219.283 41.1334 223.469 44.7501 222.957 49.288Z" fill="#BD5B52"/>
<path fill-rule="evenodd" clip-rule="evenodd" d="M213.478 51.5183C212.076 51.8242 211.441 48.6385 212.869 47.4151C211.599 46.8034 209.762 45.9176 209.15 44.586C208.447 43.0567 210.356 41.2216 211.996 41.2981C211.467 40.2784 212.641 37.5496 215.984 38.5797C219.406 39.633 220.911 41.1959 220.911 41.1959C220.911 41.1959 222.016 37.6621 224.344 40.5163C226.412 43.0531 225.593 45.2197 225.593 45.2197C225.593 45.2197 228.663 48.0268 227.869 50.1163C227.075 52.2065 225.329 52.9454 225.329 52.9454C225.329 52.9454 225.793 57.8574 222.06 59.0373C218.326 60.2179 215.975 57.7883 216.287 56.3862C213.874 56.5141 211.414 53.4042 213.478 51.5183Z" fill="#233862"/>
<path fill-rule="evenodd" clip-rule="evenodd" d="M215.977 50.5438C215.809 51.8489 215.125 53.047 214.348 53.8109C213.18 54.9596 212.099 54.1379 212.008 52.6495C211.926 51.3098 212.436 49.0977 213.809 48.5072C215.161 47.9258 216.168 49.0512 215.977 50.5438Z" fill="#BD5B52"/>
<path fill-rule="evenodd" clip-rule="evenodd" d="M252 209.885L247.99 211.351L244 200.819L248.01 199.351L252 209.885Z" fill="#BD5B52"/>
<path fill-rule="evenodd" clip-rule="evenodd" d="M245.512 212.387C245.443 212.442 245.384 212.501 245.339 212.561C245.267 212.658 245.239 212.753 245.253 212.853C245.278 213.031 245.35 213.073 245.402 213.089C245.804 213.208 246.862 212.385 247.551 211.664C247.011 211.768 245.999 212.004 245.512 212.387ZM246.798 212.684C246.263 213.106 245.69 213.438 245.331 213.331C245.206 213.294 245.047 213.187 245.006 212.889C244.983 212.722 245.027 212.56 245.14 212.409C245.687 211.672 247.784 211.365 247.873 211.351L248 211.416L247.985 211.559C247.76 211.823 247.295 212.292 246.798 212.684Z" fill="#3769A4"/>
<path fill-rule="evenodd" clip-rule="evenodd" d="M245.461 210.618L245.4 210.652C245.224 210.759 245.27 210.813 245.285 210.831C245.471 211.049 246.785 211.173 247.591 211.111C247.262 210.914 246.545 210.533 245.935 210.524C245.751 210.52 245.595 210.552 245.461 210.618ZM247.953 211.234L247.903 211.249C247.176 211.363 245.359 211.277 245.05 210.913C244.978 210.828 244.948 210.692 245.216 210.528C245.416 210.406 245.659 210.347 245.943 210.352C246.873 210.367 247.925 211.077 247.969 211.107L248 211.19L247.953 211.234Z" fill="#3769A4"/>
<path fill-rule="evenodd" clip-rule="evenodd" d="M246.368 210.34L250.077 207.434C250.215 207.325 250.416 207.324 250.559 207.43L253.747 209.8C254.077 210.046 254.087 210.516 253.762 210.762C252.405 211.788 249.787 213.89 248.188 215.305C246.318 216.96 247.773 215.854 245.581 217.795C244.255 218.968 242.633 218.015 243.074 217.407C245.084 214.643 245.511 212.998 245.77 211.235C245.823 210.875 246.074 210.569 246.368 210.34Z" fill="#0A1629"/>
<path fill-rule="evenodd" clip-rule="evenodd" d="M183 81.2281L181.12 77.3513L176 80.3856C176 80.3856 177.687 83.6874 181.18 83.3232L183 81.2281Z" fill="#BD5B52"/>
<path fill-rule="evenodd" clip-rule="evenodd" d="M176.838 76.779L175.613 77.8345C174.818 78.5194 174.793 79.7413 175.557 80.4592L176.509 81.3513L182 77.9572L178.705 76.5014C178.081 76.2268 177.355 76.3344 176.838 76.779Z" fill="#BD5B52"/>
<path fill-rule="evenodd" clip-rule="evenodd" d="M246.065 206.351L246 206.188L246.065 206.351ZM249.998 204.966L248.969 202.352L248.971 202.351L250 204.966L249.998 204.966Z" fill="#BEBFBB"/>
<path fill-rule="evenodd" clip-rule="evenodd" d="M245.844 207.351L245.775 207.147L245 204.814L248.913 202.351L250 205.62L245.844 207.351Z" fill="#914642"/>
<path fill-rule="evenodd" clip-rule="evenodd" d="M214 104.351C214 104.351 221.44 138.199 224.287 150.763C227.404 164.523 243.801 206.351 243.801 206.351L251 202.495C251 202.495 243.299 169.678 237.67 151.776C235.629 136.977 229.389 104.351 229.389 104.351H214Z" fill="#0A1629"/>
<path fill-rule="evenodd" clip-rule="evenodd" d="M241 203.131L242.565 206.351L252 202.49L251.249 199.351L241 203.131Z" fill="#3F8CFF"/>
<path fill-rule="evenodd" clip-rule="evenodd" d="M223.614 151.351C223.539 151.008 223.461 150.675 223.385 150.351C223.387 150.352 223.388 150.352 223.39 150.353C223.461 150.652 223.536 150.958 223.615 151.27C223.614 151.298 223.614 151.325 223.614 151.351Z" fill="#A0A29F"/>
<path fill-rule="evenodd" clip-rule="evenodd" d="M223.568 151.146C223.567 151.145 223.565 151.145 223.563 151.144C223.518 150.944 223.473 150.748 223.431 150.556H223.433C223.477 150.749 223.521 150.946 223.568 151.146Z" fill="#939692"/>
<path fill-rule="evenodd" clip-rule="evenodd" d="M223.905 151.351H223.904C223.898 151.331 223.892 151.311 223.887 151.291C223.642 150.389 223.379 149.406 223.094 148.351H223.097C223.38 149.406 223.646 150.39 223.89 151.293C223.895 151.312 223.9 151.332 223.905 151.351Z" fill="#1D5697"/>
<path fill-rule="evenodd" clip-rule="evenodd" d="M224 148.351H223.998C223.69 147.426 223.355 146.42 223 145.351C223.355 146.42 223.69 147.425 224 148.351Z" fill="#8593A0"/>
<path fill-rule="evenodd" clip-rule="evenodd" d="M224.991 151.351C224.942 151.159 224.896 150.971 224.852 150.788C224.823 150.669 224.796 150.551 224.769 150.435C224.766 150.421 224.763 150.407 224.759 150.393C224.609 149.74 224.446 149.027 224.272 148.264C224.047 147.282 223.804 146.216 223.547 145.082C221.953 138.061 219.801 128.469 218 120.434C218.178 120.378 218.37 120.351 218.57 120.351C218.676 120.351 218.784 120.358 218.894 120.373C224.456 121.094 225.092 140.137 224.991 151.351Z" fill="black"/>
<path fill-rule="evenodd" clip-rule="evenodd" d="M205.685 104.351C205.685 104.351 203.712 137.258 204.036 150.68C204.372 164.641 208.506 210.351 208.506 210.351H216.367C216.367 210.351 217.652 165.456 218.187 151.745C218.77 136.799 222 104.351 222 104.351H205.685Z" fill="#0A1629"/>
<path fill-rule="evenodd" clip-rule="evenodd" d="M206 206.351L206.392 209.351H215.711L216 206.674L206 206.351Z" fill="#3F8CFF"/>
<path fill-rule="evenodd" clip-rule="evenodd" d="M212 72.631C210.999 74.4388 209.853 76.1502 208.648 77.801C207.427 79.4403 206.108 80.991 204.723 82.4628C203.343 83.939 201.891 85.332 200.401 86.6541C198.931 87.978 197.346 89.2406 195.944 90.3983L195.447 90.8089L195.04 90.9563C193.958 91.3468 192.857 91.4141 191.915 91.3032C190.966 91.194 190.137 90.9453 189.391 90.6494C187.899 90.0472 186.698 89.2406 185.586 88.4C184.484 87.5449 183.492 86.628 182.57 85.6631C182.109 85.1804 181.673 84.6776 181.245 84.1724C180.81 83.663 180.415 83.1633 180 82.5866L182.383 80.3469C183.313 81.0407 184.308 81.7903 185.302 82.4362C186.291 83.0996 187.291 83.7224 188.289 84.247C189.277 84.7759 190.287 85.204 191.17 85.4236C191.61 85.5358 192.012 85.5794 192.315 85.5624C192.622 85.5418 192.799 85.4763 192.888 85.4078L191.985 85.9657C193.459 84.5788 194.793 83.3458 196.124 82.0401C197.44 80.7417 198.703 79.413 199.908 78.0472C201.103 76.6736 202.256 75.2757 203.317 73.8239C204.389 72.3787 205.352 70.8716 206.277 69.3513L212 72.631Z" fill="#BE5B52"/>
<path fill-rule="evenodd" clip-rule="evenodd" d="M215.979 71.0617C215.538 77.742 207.906 83.3513 207.906 83.3513L198 77.8982C198 77.8982 201.649 70.0262 206.564 66.3104C212.635 61.7198 216.314 65.9773 215.979 71.0617Z" fill="#3769A4"/>
<path fill-rule="evenodd" clip-rule="evenodd" d="M207.906 83.3513L199.165 78.5399L198 77.8982C198 77.8982 201.649 70.0263 206.564 66.3105C208.387 64.9323 209.994 64.3513 211.342 64.3513C214.293 64.3513 215.999 67.1336 216 70.4208C216 70.6325 215.993 70.8462 215.979 71.0618C215.538 77.742 207.906 83.3513 207.906 83.3513Z" fill="#3F8CFF"/>
</g>
<defs>
<clipPath id="clip0_1_302">
<rect width="305" height="230" fill="white"/>
</clipPath>
</defs>
</svg>
