<svg width="24" height="24" viewBox="0 0 24 24" fill="none" xmlns="http://www.w3.org/2000/svg">
<path fill-rule="evenodd" clip-rule="evenodd" d="M20.6481 6.12599C19.1999 4.32932 16.8795 3.58315 14.714 4.22945C14.1848 4.3874 13.8838 4.94446 14.0418 5.47368C14.1997 6.00289 14.7568 6.30386 15.286 6.14591C16.6656 5.73414 18.1475 6.21066 19.0909 7.3811C20.0521 8.57361 20.2725 10.2627 19.6494 11.6945C19.0348 13.1067 17.7177 13.9999 16.2804 14.0001C16.2571 14.0001 16.2339 14.0009 16.211 14.0025C16.1405 14.0009 16.0699 14.0001 15.9992 14.0001C15.4469 14.0006 14.9996 14.4486 15 15.0009C15.0004 15.5532 15.4485 16.0006 16.0008 16.0001C18.4385 15.9982 20.7362 17.3112 22.157 19.538C22.454 20.0036 23.0723 20.1402 23.5379 19.8431C24.0035 19.5461 24.1401 18.9278 23.843 18.4622C22.795 16.8196 21.3503 15.5645 19.7 14.8099C20.4568 14.2179 21.0762 13.4279 21.4833 12.4926C22.4022 10.3812 22.0785 7.9006 20.6481 6.12599ZM8 4.00012C4.68629 4.00012 2 6.68641 2 10.0001C2 11.9504 2.9305 13.6833 4.37176 14.7792C2.69221 15.5301 1.22117 16.7968 0.157345 18.4617C-0.140033 18.9271 -0.00383508 19.5454 0.461552 19.8428C0.926938 20.1402 1.54528 20.004 1.84266 19.5386C3.26476 17.313 5.56213 16.0002 7.99991 16.0001C10.4377 16 12.7351 17.3126 14.1574 19.538C14.4548 20.0034 15.0732 20.1396 15.5385 19.8421C16.0039 19.5447 16.14 18.9264 15.8426 18.461C14.7788 16.7964 13.3078 15.5298 11.6284 14.7791C13.0696 13.6832 14 11.9503 14 10.0001C14 6.68641 11.3137 4.00012 8 4.00012ZM4 10.0001C4 12.2092 5.79079 14 7.99987 14.0001H8C10.2091 14.0001 12 12.2093 12 10.0001C12 7.79098 10.2091 6.00012 8 6.00012C5.79086 6.00012 4 7.79098 4 10.0001Z" fill="#0A1629"/>
</svg>
