<svg width="19" height="19" viewBox="0 0 19 19" fill="none" xmlns="http://www.w3.org/2000/svg">
<path fill-rule="evenodd" clip-rule="evenodd" d="M17.6667 13.4334V15.9334C17.6686 16.4027 17.4726 16.851 17.1268 17.1683C16.781 17.4856 16.3174 17.6423 15.85 17.6001C13.2857 17.3214 10.8225 16.4452 8.65836 15.0417C6.64489 13.7623 4.93781 12.0552 3.65836 10.0417C2.25001 7.86775 1.37357 5.39258 1.10003 2.81675C1.05793 2.35081 1.21359 1.88863 1.529 1.5431C1.84441 1.19757 2.29053 1.00052 2.75836 1.00008H5.25836C6.09492 0.991848 6.80795 1.60505 6.92503 2.43342C7.03055 3.23347 7.22624 4.01902 7.50836 4.77508C7.73731 5.38414 7.59088 6.07075 7.13336 6.53342L6.07503 7.59175C7.26133 9.67804 8.98874 11.4055 11.075 12.5917L12.1334 11.5334C12.596 11.0759 13.2826 10.9295 13.8917 11.1584C14.6478 11.4405 15.4333 11.6362 16.2334 11.7417C17.0713 11.86 17.6877 12.5874 17.6667 13.4334Z" stroke="#59D150" stroke-width="2" stroke-linecap="round" stroke-linejoin="round"/>
</svg>
