<svg width="24" height="24" viewBox="0 0 24 24" fill="none" xmlns="http://www.w3.org/2000/svg">
<path fill-rule="evenodd" clip-rule="evenodd" d="M14.4365 2.30241C9.99037 1.18531 5.35403 3.23426 3.18686 7.27398C1.01968 11.3137 1.87667 16.3096 5.26628 19.3962C8.65588 22.4827 13.71 22.8693 17.5297 20.3343C17.9898 20.029 18.1153 19.4083 17.8099 18.9482C17.5045 18.488 16.8839 18.3625 16.4237 18.6679C13.368 20.696 9.32457 20.3867 6.61283 17.9174C3.9011 15.4481 3.21549 11.4513 4.94926 8.21946C6.68304 4.98761 10.3922 3.34843 13.9492 4.24212C17.5061 5.13581 20 8.3335 20.0003 12.001C20.0003 13.8262 19.4254 14.7509 18.3753 14.7509C17.3252 14.7509 16.7503 13.8262 16.7503 12.0009V8.25095L16.7436 8.13433C16.6858 7.63699 16.2632 7.25095 15.7503 7.25095C15.2381 7.25095 14.8159 7.63602 14.7573 8.13246C13.9799 7.57747 13.0283 7.25095 12.0003 7.25095C9.37697 7.25095 7.25032 9.3776 7.25032 12.0009C7.25032 14.6243 9.37697 16.7509 12.0003 16.7509C13.3916 16.7509 14.6432 16.1528 15.512 15.1995C16.1134 16.1735 17.0695 16.7509 18.3753 16.7509C20.7815 16.7509 22.0003 14.7904 22.0003 12.0009C21.9999 7.41654 18.8826 3.4195 14.4365 2.30241ZM14.7503 12.0009C14.7503 10.4822 13.5191 9.25095 12.0003 9.25095C10.4815 9.25095 9.25032 10.4822 9.25032 12.0009C9.25032 13.5197 10.4815 14.7509 12.0003 14.7509C13.5191 14.7509 14.7503 13.5197 14.7503 12.0009Z" fill="#3F8CFF"/>
</svg>
