<svg width="19" height="15" viewBox="0 0 19 15" fill="none" xmlns="http://www.w3.org/2000/svg">
<path fill-rule="evenodd" clip-rule="evenodd" d="M15.8333 0H2.5C1.1231 0 0 1.1231 0 2.5V2.83254C0 2.83263 0 2.83272 0 2.83281V12.5C0 13.8769 1.1231 15 2.5 15H15.8333C17.2102 15 18.3333 13.8769 18.3333 12.5V2.84807C18.3335 2.83782 18.3335 2.82756 18.3333 2.81729V2.5C18.3333 1.1231 17.2102 0 15.8333 0ZM16.661 2.40349C16.6124 1.99164 16.2572 1.66667 15.8333 1.66667H2.5C2.07621 1.66667 1.72097 1.9916 1.67234 2.40342L9.1664 7.64874L16.661 2.40349ZM1.66667 4.4339V12.5C1.66667 12.9564 2.04357 13.3333 2.5 13.3333H15.8333C16.2898 13.3333 16.6667 12.9564 16.6667 12.5V4.434L9.64462 9.34943C9.38957 9.52797 9.05948 9.54781 8.78775 9.40894L8.68885 9.34943L1.66667 4.4339Z" fill="#FA9501"/>
</svg>
