<svg width="24" height="24" viewBox="0 0 24 24" fill="none" xmlns="http://www.w3.org/2000/svg">
<path fill-rule="evenodd" clip-rule="evenodd" d="M16.9456 7.30166C15.864 4.4679 13.2945 2.41883 10.2321 2.0105C6.79568 1.66632 3.50253 3.47432 1.91219 6.54141C0.540464 9.39807 0.779419 13.7675 2.46233 16.348C2.76403 16.8106 3.38361 16.941 3.84621 16.6393C4.30881 16.3376 4.43925 15.7181 4.13755 15.2555C2.84093 13.2673 2.64259 9.64045 3.70147 7.43446C4.90304 5.11817 7.41629 3.73835 10.0004 3.99677C12.5852 4.34195 14.7272 6.26239 15.3261 8.82896C15.4317 9.28155 15.8352 9.60173 16.2999 9.60173H17.4999L17.681 9.60727C19.1256 9.69559 20.4746 10.8308 20.9421 12.3891C21.1542 13.3943 20.953 14.4404 20.3362 15.4979C20.0579 15.9749 20.219 16.5872 20.6961 16.8655C21.1731 17.1438 21.7854 16.9827 22.0637 16.5056C22.9214 15.0352 23.2193 13.4862 22.8777 11.8922L22.8005 11.6508C21.9836 9.26131 19.8499 7.60173 17.4999 7.60173L17.0519 7.60073L16.9456 7.30166ZM12.9932 12.8851C12.9354 12.3878 12.5128 12.0017 11.9999 12.0017C11.4477 12.0017 10.9999 12.4494 10.9999 13.0017V19.5867L8.70705 17.2946L8.61284 17.2114C8.22055 16.9064 7.65332 16.9341 7.29284 17.2946C6.90231 17.6851 6.90231 18.3183 7.29284 18.7088L11.2928 22.7088L11.387 22.792C11.7793 23.097 12.3466 23.0693 12.707 22.7088L16.707 18.7088L16.7902 18.6146C17.0953 18.2223 17.0675 17.6551 16.707 17.2946L16.6128 17.2114C16.2206 16.9064 15.6533 16.9341 15.2928 17.2946L12.9999 19.5867V13.0017L12.9932 12.8851Z" fill="#0A1629"/>
</svg>
