<svg width="24" height="24" viewBox="0 0 24 24" fill="none" xmlns="http://www.w3.org/2000/svg">
<path fill-rule="evenodd" clip-rule="evenodd" d="M2 8C2 5.79086 3.79086 4 6 4H18C20.2091 4 22 5.79086 22 8V17C22 19.2091 20.2091 21 18 21H6C3.79086 21 2 19.2091 2 17V8ZM7 16.3636H17C17.4248 16.3636 17.7692 16.0177 17.7692 15.5909C17.7692 15.1641 17.4248 14.8182 17 14.8182H7C6.57517 14.8182 6.23077 15.1641 6.23077 15.5909C6.23077 16.0177 6.57517 16.3636 7 16.3636ZM17 13.2727H7C6.57517 13.2727 6.23077 12.9268 6.23077 12.5C6.23077 12.0732 6.57517 11.7273 7 11.7273H17C17.4248 11.7273 17.7692 12.0732 17.7692 12.5C17.7692 12.9268 17.4248 13.2727 17 13.2727ZM7 10.1818H17C17.4248 10.1818 17.7692 9.83586 17.7692 9.40909C17.7692 8.98233 17.4248 8.63636 17 8.63636H7C6.57517 8.63636 6.23077 8.98233 6.23077 9.40909C6.23077 9.83586 6.57517 10.1818 7 10.1818Z" fill="#3F8CFF"/>
</svg>
