<svg width="25" height="19" viewBox="0 0 25 19" fill="none" xmlns="http://www.w3.org/2000/svg">
<path d="M8.59375 9.5C7.2998 9.5 6.19507 9.03613 5.27954 8.1084C4.36401 7.18066 3.90625 6.0612 3.90625 4.75C3.90625 3.4388 4.36401 2.31934 5.27954 1.3916C6.19507 0.463867 7.2998 0 8.59375 0C9.8877 0 10.9924 0.463867 11.908 1.3916C12.8235 2.31934 13.2812 3.4388 13.2812 4.75C13.2812 6.0612 12.8235 7.18066 11.908 8.1084C10.9924 9.03613 9.8877 9.5 8.59375 9.5ZM20.3125 11.0833H24.6094C24.7152 11.0833 24.8067 11.1225 24.884 11.2008C24.9613 11.2792 25 11.372 25 11.4792V13.8542C25 13.9614 24.9613 14.0541 24.884 14.1325C24.8067 14.2108 24.7152 14.25 24.6094 14.25H20.3125V18.6042C20.3125 18.7114 20.2738 18.8041 20.1965 18.8825C20.1192 18.9608 20.0277 19 19.9219 19H17.5781C17.4723 19 17.3808 18.9608 17.3035 18.8825C17.2262 18.8041 17.1875 18.7114 17.1875 18.6042V14.25H12.8906C12.7848 14.25 12.6933 14.2108 12.616 14.1325C12.5387 14.0541 12.5 13.9614 12.5 13.8542V11.4792C12.5 11.372 12.5387 11.2792 12.616 11.2008C12.6933 11.1225 12.7848 11.0833 12.8906 11.0833H17.1875V6.72917C17.1875 6.62196 17.2262 6.52919 17.3035 6.45085C17.3808 6.3725 17.4723 6.33333 17.5781 6.33333H19.9219C20.0277 6.33333 20.1192 6.3725 20.1965 6.45085C20.2738 6.52919 20.3125 6.62196 20.3125 6.72917V11.0833ZM11.3281 13.8542C11.3281 14.283 11.4827 14.6541 11.792 14.9674C12.1012 15.2808 12.4674 15.4375 12.8906 15.4375H16.0156V18.3815C15.4622 18.7938 14.7664 19 13.9282 19H3.25928C2.27458 19 1.48519 18.7155 0.891113 18.1465C0.297038 17.5775 0 16.7941 0 15.7962C0 15.3592 0.0142415 14.9324 0.0427246 14.516C0.0712077 14.0995 0.128174 13.6501 0.213623 13.1676C0.299072 12.6852 0.406901 12.2378 0.537109 11.8255C0.667318 11.4132 0.842285 11.0112 1.06201 10.6195C1.28174 10.2278 1.53402 9.89377 1.81885 9.61751C2.10368 9.34125 2.45158 9.12066 2.86255 8.95573C3.27352 8.7908 3.72721 8.70833 4.22363 8.70833C4.37826 8.70833 4.53695 8.77843 4.69971 8.91862C5.34261 9.42166 5.97127 9.79894 6.58569 10.0505C7.20011 10.302 7.86947 10.4277 8.59375 10.4277C9.31803 10.4277 9.98739 10.302 10.6018 10.0505C11.2162 9.79894 11.8449 9.42166 12.4878 8.91862C12.6506 8.77843 12.8092 8.70833 12.9639 8.70833C14.0381 8.70833 14.9211 9.10417 15.6128 9.89583H12.8906C12.4674 9.89583 12.1012 10.0525 11.792 10.3659C11.4827 10.6793 11.3281 11.0503 11.3281 11.4792V13.8542Z" fill="white"/>
</svg>
