<svg width="13" height="17" viewBox="0 0 13 17" fill="none" xmlns="http://www.w3.org/2000/svg">
<path fill-rule="evenodd" clip-rule="evenodd" d="M6.5 0.166626C5.39493 0.166626 4.33512 0.605613 3.55372 1.38701C2.77232 2.16842 2.33333 3.22822 2.33333 4.33329C2.33333 5.43836 2.77232 6.49817 3.55372 7.27957C4.33512 8.06097 5.39493 8.49996 6.5 8.49996C7.60507 8.49996 8.66488 8.06097 9.44628 7.27957C10.2277 6.49817 10.6667 5.43836 10.6667 4.33329C10.6667 3.22822 10.2277 2.16842 9.44628 1.38701C8.66488 0.605613 7.60507 0.166626 6.5 0.166626ZM4.41667 9.54163C3.3116 9.54163 2.25179 9.98061 1.47039 10.762C0.688987 11.5434 0.25 12.6032 0.25 13.7083V14.75C0.25 15.3025 0.469493 15.8324 0.860194 16.2231C1.25089 16.6138 1.7808 16.8333 2.33333 16.8333H10.6667C11.2192 16.8333 11.7491 16.6138 12.1398 16.2231C12.5305 15.8324 12.75 15.3025 12.75 14.75V13.7083C12.75 12.6032 12.311 11.5434 11.5296 10.762C10.7482 9.98061 9.6884 9.54163 8.58333 9.54163H4.41667Z" fill="white"/>
</svg>

